<?xml version="1.0" encoding="UTF-8" standalone="no"?>
<!-- Created with Inkscape (http://www.inkscape.org/) -->

<svg
   width="297mm"
   height="210mm"
   viewBox="0 0 297 210"
   version="1.1"
   id="svg1"
   xml:space="preserve"
   sodipodi:docname="pozadi_pro_import.svg"
   inkscape:export-filename="pozadi_pro_import.png"
   inkscape:export-xdpi="156.67999"
   inkscape:export-ydpi="156.67999"
   inkscape:version="1.4.2 (f4327f4, 2025-05-13)"
   xmlns:inkscape="http://www.inkscape.org/namespaces/inkscape"
   xmlns:sodipodi="http://sodipodi.sourceforge.net/DTD/sodipodi-0.dtd"
   xmlns="http://www.w3.org/2000/svg"
   xmlns:svg="http://www.w3.org/2000/svg"><sodipodi:namedview
     id="namedview1"
     pagecolor="#ffffff"
     bordercolor="#000000"
     borderopacity="0.25"
     inkscape:showpageshadow="2"
     inkscape:pageopacity="0.0"
     inkscape:pagecheckerboard="0"
     inkscape:deskcolor="#d1d1d1"
     inkscape:document-units="mm"
     inkscape:zoom="0.71895503"
     inkscape:cx="443.69952"
     inkscape:cy="480.55857"
     inkscape:window-width="1920"
     inkscape:window-height="1009"
     inkscape:window-x="-8"
     inkscape:window-y="-8"
     inkscape:window-maximized="1"
     inkscape:current-layer="svg1" /><defs
     id="defs1" /><path
     id="rect8"
     style="fill:#b3d5ef;stroke-width:0.916001;stroke-linecap:round;stroke-linejoin:round"
     d="M 0,2.5762081 H 298.84015 V 152.73234 H 0 Z" /><path
     id="rect7"
     style="fill:#85b0d0;stroke-width:0.264583"
     d="m 38.74726,131.1813 h 11.518757 c 0.372174,0 0.671794,0.29962 0.671794,0.6718 v 20.28853 c 0,0.37218 -0.29962,0.6718 -0.671794,0.6718 H 38.74726 c -0.372174,0 -0.671794,-0.29962 -0.671794,-0.6718 V 131.8531 c 0,-0.37218 0.29962,-0.6718 0.671794,-0.6718 z" /><path
     id="rect5"
     style="fill:#79a5c8;stroke-width:0.264583"
     d="m 51.2442,107.72215 h 8.376253 c 0.372174,0 0.671794,0.29962 0.671794,0.6718 v 43.01689 c 0,0.37217 -0.29962,0.67179 -0.671794,0.67179 H 51.2442 c -0.372173,0 -0.671793,-0.29962 -0.671793,-0.67179 v -43.01689 c 0,-0.37218 0.29962,-0.6718 0.671793,-0.6718 z" /><path
     id="rect1"
     style="fill:#86afcf;stroke-width:0.272621"
     d="m 59.965349,82.211502 h 18.44592 c 0.91612,0 1.653646,0.737526 1.653646,1.653646 v 66.718232 c 0,0.91612 -0.737526,1.65364 -1.653646,1.65364 h -18.44592 c -0.91612,0 -1.653646,-0.73752 -1.653646,-1.65364 V 83.865148 c 0,-0.91612 0.737526,-1.653646 1.653646,-1.653646 z" /><path
     id="rect2"
     style="fill:#86afcf;stroke-width:0.308966"
     d="m 63.510335,76.481117 h 11.162109 c 0.486689,0 0.878499,0.391811 0.878499,0.8785 v 7.544759 c 0,0.486688 -0.39181,0.878499 -0.878499,0.878499 H 63.510335 c -0.486688,0 -0.878499,-0.391811 -0.878499,-0.878499 v -7.544759 c 0,-0.486689 0.391811,-0.8785 0.878499,-0.8785 z" /><path
     id="rect3"
     style="fill:#86afcf;stroke-width:0.264583"
     d="m 68.729657,73.664757 h 0.904338 c 0.486689,0 0.878499,0.39181 0.878499,0.878499 v 4.728394 c 0,0.486688 -0.39181,0.878499 -0.878499,0.878499 h -0.904338 c -0.486688,0 -0.878499,-0.391811 -0.878499,-0.878499 v -4.728394 c 0,-0.486689 0.391811,-0.878499 0.878499,-0.878499 z" /><path
     id="rect4"
     style="fill:#86afcf;stroke-width:0.434467"
     d="m 69.220584,62.967735 c 0.372173,0 0.671793,0.807904 0.671793,1.811444 v 8.081825 c 0,1.003539 -0.29962,1.811443 -0.671793,1.811443 -0.372174,0 -0.671794,-0.807904 -0.671794,-1.811443 v -8.081825 c 0,-1.00354 0.29962,-1.811444 0.671794,-1.811444 z" /><path
     id="rect9"
     style="fill:#85b0d0;stroke-width:0.264583"
     d="M 89.831233,120.58449 H 104.8579 c 0.37217,0 0.67179,0.29962 0.67179,0.67179 v 30.73919 c 0,0.37218 -0.29962,0.6718 -0.67179,0.6718 H 89.831233 c -0.372174,0 -0.671794,-0.29962 -0.671794,-0.6718 v -30.73919 c 0,-0.37217 0.29962,-0.67179 0.671794,-0.67179 z" /><path
     id="rect6"
     style="fill:#79a5c8;stroke-width:0.264583"
     d="m 80.549884,117.14967 h 9.837883 c 0.372174,0 0.671794,0.29962 0.671794,0.6718 v 34.10094 c 0,0.37218 -0.29962,0.6718 -0.671794,0.6718 h -9.837883 c -0.372174,0 -0.671794,-0.29962 -0.671794,-0.6718 v -34.10094 c 0,-0.37218 0.29962,-0.6718 0.671794,-0.6718 z" /><path
     id="rect10"
     style="fill:#79a5c8;stroke-width:0.264583"
     d="m 101.8897,118.90362 h 20.21546 c 0.37217,0 0.67179,0.29962 0.67179,0.67179 v 31.54309 c 0,0.37218 -0.29962,0.6718 -0.67179,0.6718 H 101.8897 c -0.37218,0 -0.6718,-0.29962 -0.6718,-0.6718 v -31.54309 c 0,-0.37217 0.29962,-0.67179 0.6718,-0.67179 z" /><path
     id="rect11"
     style="fill:#79a5c8;stroke-width:0.264583"
     d="m 103.13208,111.4493 h 17.73069 c 0.37217,0 0.67179,0.29962 0.67179,0.6718 v 11.44567 c 0,0.37218 -0.29962,0.6718 -0.67179,0.6718 h -17.73069 c -0.37217,0 -0.67179,-0.29962 -0.67179,-0.6718 V 112.1211 c 0,-0.37218 0.29962,-0.6718 0.67179,-0.6718 z" /><path
     id="rect12"
     style="fill:#79a5c8;stroke-width:0.264583"
     d="m 105.72647,106.47977 h 12.5419 c 0.37218,0 0.6718,0.29962 0.6718,0.67179 v 9.18015 c 0,0.37217 -0.29962,0.67179 -0.6718,0.67179 h -12.5419 c -0.37217,0 -0.67179,-0.29962 -0.67179,-0.67179 v -9.18015 c 0,-0.37217 0.29962,-0.67179 0.67179,-0.67179 z" /><path
     id="rect13"
     style="fill:#79a5c8;stroke-width:0.264583"
     d="m 110.11138,98.513878 h 3.77212 c 0.37217,0 0.67179,0.29962 0.67179,0.671794 v 9.399398 c 0,0.37217 -0.29962,0.67179 -0.67179,0.67179 h -3.77212 c -0.37218,0 -0.6718,-0.29962 -0.6718,-0.67179 v -9.399398 c 0,-0.372174 0.29962,-0.671794 0.6718,-0.671794 z" /><path
     id="rect23"
     style="fill:#79a5c8;stroke-width:0.264583"
     d="m 212.02352,113.27634 h 7.28003 c 0.37218,0 0.6718,0.29962 0.6718,0.67179 v 46.59788 c 0,0.37217 -0.29962,0.67179 -0.6718,0.67179 h -7.28003 c -0.37217,0 -0.67179,-0.29962 -0.67179,-0.67179 v -46.59788 c 0,-0.37217 0.29962,-0.67179 0.67179,-0.67179 z" /><path
     id="rect14"
     style="fill:#85b0d0;stroke-width:0.264583"
     d="m 217.57772,99.24469 h 21.31168 c 0.37218,0 0.6718,0.29962 0.6718,0.671794 v 56.536966 c 0,0.37217 -0.29962,0.67179 -0.6718,0.67179 h -21.31168 c -0.37217,0 -0.67179,-0.29962 -0.67179,-0.67179 V 99.916484 c 0,-0.372174 0.29962,-0.671794 0.67179,-0.671794 z" /><path
     id="rect22"
     style="fill:#79a5c8;stroke-width:0.264583"
     d="m 185.27569,126.8695 h 14.29586 c 0.37217,0 0.67179,0.29962 0.67179,0.67179 v 35.05101 c 0,0.37217 -0.29962,0.67179 -0.67179,0.67179 h -14.29586 c -0.37217,0 -0.67179,-0.29962 -0.67179,-0.67179 v -35.05101 c 0,-0.37217 0.29962,-0.67179 0.67179,-0.67179 z" /><path
     id="rect15"
     style="fill:#85b0d0;stroke-width:0.264583"
     d="m 194.56958,84.265129 h 19.03361 c 0.37218,0 0.6718,0.29962 0.6718,0.671794 v 71.955007 c 0,0.37217 -0.29962,0.67179 -0.6718,0.67179 h -19.03361 c -0.37218,0 -0.6718,-0.29962 -0.6718,-0.67179 V 84.936923 c 0,-0.372174 0.29962,-0.671794 0.6718,-0.671794 z" /><path
     id="rect21"
     style="fill:#79a5c8;stroke-width:0.264583"
     d="m 165.25137,129.93892 h 12.5419 c 0.37217,0 0.67179,0.29962 0.67179,0.67179 v 36.80496 c 0,0.37218 -0.29962,0.6718 -0.67179,0.6718 h -12.5419 c -0.37218,0 -0.6718,-0.29962 -0.6718,-0.6718 v -36.80496 c 0,-0.37217 0.29962,-0.67179 0.6718,-0.67179 z" /><path
     id="rect16"
     style="fill:#85b0d0;stroke-width:0.264583"
     d="m 174.31347,112.2532 h 11.95725 c 0.37217,0 0.67179,0.29962 0.67179,0.67179 v 42.21299 c 0,0.37218 -0.29962,0.6718 -0.67179,0.6718 h -11.95725 c -0.37217,0 -0.67179,-0.29962 -0.67179,-0.6718 v -42.21299 c 0,-0.37217 0.29962,-0.67179 0.67179,-0.67179 z" /><path
     id="rect19"
     style="fill:#79a5c8;stroke-width:0.264583"
     d="m 142.74226,138.85486 h 16.78063 c 0.37217,0 0.67179,0.29962 0.67179,0.67179 v 16.4883 c 0,0.37218 -0.29962,0.6718 -0.67179,0.6718 h -16.78063 c -0.37217,0 -0.67179,-0.29962 -0.67179,-0.6718 v -16.4883 c 0,-0.37217 0.29962,-0.67179 0.67179,-0.67179 z" /><path
     id="rect17"
     style="fill:#85b0d0;stroke-width:0.264583"
     d="m 158.08937,125.11555 h 8.30317 c 0.37217,0 0.67179,0.29962 0.67179,0.67179 v 31.98158 c 0,0.37218 -0.29962,0.6718 -0.67179,0.6718 h -8.30317 c -0.37218,0 -0.6718,-0.29962 -0.6718,-0.6718 v -31.98158 c 0,-0.37217 0.29962,-0.67179 0.6718,-0.67179 z" /><path
     id="rect20"
     style="fill:#79a5c8;stroke-width:0.264583"
     d="m 130.90304,115.0303 h 8.88783 c 0.37217,0 0.67179,0.29962 0.67179,0.67179 v 37.8281 c 0,0.37217 -0.29962,0.67179 -0.67179,0.67179 h -8.88783 c -0.37217,0 -0.67179,-0.29962 -0.67179,-0.67179 v -37.8281 c 0,-0.37217 0.29962,-0.67179 0.67179,-0.67179 z" /><path
     id="rect18"
     style="fill:#85b0d0;stroke-width:0.264583"
     d="m 123.15641,130.37741 h 20.87319 c 0.37217,0 0.67179,0.29962 0.67179,0.67179 v 24.23495 c 0,0.37217 -0.29962,0.67179 -0.67179,0.67179 h -20.87319 c -0.37218,0 -0.6718,-0.29962 -0.6718,-0.67179 V 131.0492 c 0,-0.37217 0.29962,-0.67179 0.6718,-0.67179 z" /><path
     style="fill:#6b9301;fill-opacity:1;stroke:none;stroke-width:0.916001;stroke-linecap:round;stroke-linejoin:round;stroke-dasharray:none"
     d="M 25.762082,206.09665 140.31134,150.36315 -0.36802972,149.7881 0.73605946,206.09665 Z"
     id="path8" /><path
     style="fill:#6b9301;fill-opacity:1;stroke:none;stroke-width:0.916001;stroke-linecap:round;stroke-linejoin:round;stroke-dasharray:none"
     d="m 262.35353,205.61897 37.95874,-0.62641 -0.36804,-54.83643 -137.62012,0.20702 z"
     id="path7" /><path
     style="fill:#e2ccb0;fill-opacity:1;stroke:none;stroke-width:0.916001;stroke-linecap:round;stroke-linejoin:round;stroke-dasharray:none"
     d="M 25.344422,206.2031 140.00714,150.41659 h 22.38033 l 104.09451,55.1701 z"
     id="path6" /><g
     id="g16"
     style="fill:#3d8001;fill-opacity:1"><path
       id="path9"
       style="stroke-width:0.916001;stroke-linecap:round;stroke-linejoin:round"
       d="m 297.73606,166.90149 a 9.9368029,10.488847 0 0 1 -9.9368,10.48885 9.9368029,10.488847 0 0 1 -9.93681,-10.48885 9.9368029,10.488847 0 0 1 9.93681,-10.48885 9.9368029,10.488847 0 0 1 9.9368,10.48885 z" /><path
       id="path10"
       style="stroke-width:1.04968;stroke-linecap:round;stroke-linejoin:round"
       d="m 284.85499,171.08783 a 7.4065981,7.7746282 0 0 1 -7.4066,7.77463 7.4065981,7.7746282 0 0 1 -7.40659,-7.77463 7.4065981,7.7746282 0 0 1 7.40659,-7.77463 7.4065981,7.7746282 0 0 1 7.4066,7.77463 z" /><path
       id="path11"
       style="stroke-width:1.04633;stroke-linecap:round;stroke-linejoin:round"
       d="m 281.54274,174.76813 a 9.246747,5.9344797 0 0 1 -9.24675,5.93448 9.246747,5.9344797 0 0 1 -9.24675,-5.93448 9.246747,5.9344797 0 0 1 9.24675,-5.93448 9.246747,5.9344797 0 0 1 9.24675,5.93448 z" /><path
       id="path12"
       style="stroke-width:0.916001;stroke-linecap:round;stroke-linejoin:round"
       d="m 299.94426,172.05389 a 4.048327,7.5446095 0 0 1 -4.04832,7.54461 4.048327,7.5446095 0 0 1 -4.04833,-7.54461 4.048327,7.5446095 0 0 1 4.04833,-7.54461 4.048327,7.5446095 0 0 1 4.04832,7.54461 z" /><path
       id="path13"
       style="stroke-width:0.916001;stroke-linecap:round;stroke-linejoin:round"
       d="m 295.89592,164.87732 a 3.3122675,2.5762081 0 0 1 -3.31227,2.57621 3.3122675,2.5762081 0 0 1 -3.31227,-2.57621 3.3122675,2.5762081 0 0 1 3.31227,-2.57621 3.3122675,2.5762081 0 0 1 3.31227,2.57621 z" /><path
       id="path14"
       style="stroke-width:0.916001;stroke-linecap:round;stroke-linejoin:round"
       d="m 299.94424,166.71747 a 3.8643124,4.048327 0 0 1 -3.86431,4.04833 3.8643124,4.048327 0 0 1 -3.86432,-4.04833 3.8643124,4.048327 0 0 1 3.86432,-4.04833 3.8643124,4.048327 0 0 1 3.86431,4.04833 z" /><path
       style="fill:#3d8001;fill-opacity:1;stroke:none;stroke-width:0.916001;stroke-linecap:round;stroke-linejoin:round;stroke-dasharray:none"
       id="path15"
       d="m 300.39523,171.86063 a 5.5664501,5.8424721 0 0 1 -5.01909,-2.71295 5.5664501,5.8424721 0 0 1 -0.17827,-5.92255 5.5664501,5.8424721 0 0 1 4.84594,-3.04006 l 0.0384,5.84233 z" /><path
       style="fill:#3d8001;fill-opacity:1;stroke:none;stroke-width:0.916001;stroke-linecap:round;stroke-linejoin:round;stroke-dasharray:none"
       d="m 263.04925,174.81412 c 0,0 -0.23328,4.64311 0.092,4.9684 0.92007,0.92008 7.17657,1.01209 7.17657,1.01209 l 6.1645,-0.36803 6.44053,-0.64405 c 0,0 3.8643,-0.27602 4.60037,-0.18402 0.73605,0.092 8.00464,0.18401 8.00464,0.18401 l 4.69237,-0.64405 v -7.4526 z"
       id="path16" /></g><g
     id="g16-0"
     style="fill:#3d8001;fill-opacity:1"
     transform="matrix(1.1015375,0,0,0.62391568,-268.70989,39.549033)"><path
       id="path9-6"
       style="stroke-width:0.916001;stroke-linecap:round;stroke-linejoin:round"
       d="m 297.73606,166.90149 a 9.9368029,10.488847 0 0 1 -9.9368,10.48885 9.9368029,10.488847 0 0 1 -9.93681,-10.48885 9.9368029,10.488847 0 0 1 9.93681,-10.48885 9.9368029,10.488847 0 0 1 9.9368,10.48885 z" /><path
       id="path10-61"
       style="stroke-width:1.04968;stroke-linecap:round;stroke-linejoin:round"
       d="m 284.85499,171.08783 a 7.4065981,7.7746282 0 0 1 -7.4066,7.77463 7.4065981,7.7746282 0 0 1 -7.40659,-7.77463 7.4065981,7.7746282 0 0 1 7.40659,-7.77463 7.4065981,7.7746282 0 0 1 7.4066,7.77463 z" /><path
       id="path11-8"
       style="stroke-width:1.04633;stroke-linecap:round;stroke-linejoin:round"
       d="m 281.54274,174.76813 a 9.246747,5.9344797 0 0 1 -9.24675,5.93448 9.246747,5.9344797 0 0 1 -9.24675,-5.93448 9.246747,5.9344797 0 0 1 9.24675,-5.93448 9.246747,5.9344797 0 0 1 9.24675,5.93448 z" /><path
       id="path12-49"
       style="stroke-width:0.916001;stroke-linecap:round;stroke-linejoin:round"
       d="m 299.94426,172.05389 a 4.048327,7.5446095 0 0 1 -4.04832,7.54461 4.048327,7.5446095 0 0 1 -4.04833,-7.54461 4.048327,7.5446095 0 0 1 4.04833,-7.54461 4.048327,7.5446095 0 0 1 4.04832,7.54461 z" /><path
       id="path13-6"
       style="stroke-width:0.916001;stroke-linecap:round;stroke-linejoin:round"
       d="m 295.89592,164.87732 a 3.3122675,2.5762081 0 0 1 -3.31227,2.57621 3.3122675,2.5762081 0 0 1 -3.31227,-2.57621 3.3122675,2.5762081 0 0 1 3.31227,-2.57621 3.3122675,2.5762081 0 0 1 3.31227,2.57621 z" /><path
       id="path14-37"
       style="stroke-width:0.916001;stroke-linecap:round;stroke-linejoin:round"
       d="m 299.94424,166.71747 a 3.8643124,4.048327 0 0 1 -3.86431,4.04833 3.8643124,4.048327 0 0 1 -3.86432,-4.04833 3.8643124,4.048327 0 0 1 3.86432,-4.04833 3.8643124,4.048327 0 0 1 3.86431,4.04833 z" /><path
       style="fill:#3d8001;fill-opacity:1;stroke:none;stroke-width:0.916001;stroke-linecap:round;stroke-linejoin:round;stroke-dasharray:none"
       id="path15-8"
       d="m 300.39523,171.86063 a 5.5664501,5.8424721 0 0 1 -5.01909,-2.71295 5.5664501,5.8424721 0 0 1 -0.17827,-5.92255 5.5664501,5.8424721 0 0 1 4.84594,-3.04006 l 0.0384,5.84233 z" /><path
       style="fill:#3d8001;fill-opacity:1;stroke:none;stroke-width:0.916001;stroke-linecap:round;stroke-linejoin:round;stroke-dasharray:none"
       d="m 263.04925,174.81412 c 0,0 -0.23328,4.64311 0.092,4.9684 0.92007,0.92008 7.17657,1.01209 7.17657,1.01209 l 6.1645,-0.36803 6.44053,-0.64405 c 0,0 3.8643,-0.27602 4.60037,-0.18402 0.73605,0.092 8.00464,0.18401 8.00464,0.18401 l 4.69237,-0.64405 v -7.4526 z"
       id="path16-8" /></g><g
     id="g16-2"
     style="fill:#3d8001;fill-opacity:1"
     transform="matrix(-1,0,0,1,290.85199,-3.1364323)"><path
       id="path9-7"
       style="stroke-width:0.916001;stroke-linecap:round;stroke-linejoin:round"
       d="m 297.73606,166.90149 a 9.9368029,10.488847 0 0 1 -9.9368,10.48885 9.9368029,10.488847 0 0 1 -9.93681,-10.48885 9.9368029,10.488847 0 0 1 9.93681,-10.48885 9.9368029,10.488847 0 0 1 9.9368,10.48885 z" /><path
       id="path10-6"
       style="stroke-width:1.04968;stroke-linecap:round;stroke-linejoin:round"
       d="m 284.85499,171.08783 a 7.4065981,7.7746282 0 0 1 -7.4066,7.77463 7.4065981,7.7746282 0 0 1 -7.40659,-7.77463 7.4065981,7.7746282 0 0 1 7.40659,-7.77463 7.4065981,7.7746282 0 0 1 7.4066,7.77463 z" /><path
       id="path11-1"
       style="stroke-width:1.04633;stroke-linecap:round;stroke-linejoin:round"
       d="m 281.54274,174.76813 a 9.246747,5.9344797 0 0 1 -9.24675,5.93448 9.246747,5.9344797 0 0 1 -9.24675,-5.93448 9.246747,5.9344797 0 0 1 9.24675,-5.93448 9.246747,5.9344797 0 0 1 9.24675,5.93448 z" /><path
       id="path12-4"
       style="stroke-width:0.916001;stroke-linecap:round;stroke-linejoin:round"
       d="m 299.94426,172.05389 a 4.048327,7.5446095 0 0 1 -4.04832,7.54461 4.048327,7.5446095 0 0 1 -4.04833,-7.54461 4.048327,7.5446095 0 0 1 4.04833,-7.54461 4.048327,7.5446095 0 0 1 4.04832,7.54461 z" /><path
       id="path13-2"
       style="stroke-width:0.916001;stroke-linecap:round;stroke-linejoin:round"
       d="m 295.89592,164.87732 a 3.3122675,2.5762081 0 0 1 -3.31227,2.57621 3.3122675,2.5762081 0 0 1 -3.31227,-2.57621 3.3122675,2.5762081 0 0 1 3.31227,-2.57621 3.3122675,2.5762081 0 0 1 3.31227,2.57621 z" /><path
       id="path14-3"
       style="stroke-width:0.916001;stroke-linecap:round;stroke-linejoin:round"
       d="m 299.94424,166.71747 a 3.8643124,4.048327 0 0 1 -3.86431,4.04833 3.8643124,4.048327 0 0 1 -3.86432,-4.04833 3.8643124,4.048327 0 0 1 3.86432,-4.04833 3.8643124,4.048327 0 0 1 3.86431,4.04833 z" /><path
       style="fill:#3d8001;fill-opacity:1;stroke:none;stroke-width:0.916001;stroke-linecap:round;stroke-linejoin:round;stroke-dasharray:none"
       id="path15-2"
       d="m 300.39523,171.86063 a 5.5664501,5.8424721 0 0 1 -5.01909,-2.71295 5.5664501,5.8424721 0 0 1 -0.17827,-5.92255 5.5664501,5.8424721 0 0 1 4.84594,-3.04006 l 0.0384,5.84233 z" /><path
       style="fill:#3d8001;fill-opacity:1;stroke:none;stroke-width:0.916001;stroke-linecap:round;stroke-linejoin:round;stroke-dasharray:none"
       d="m 263.04925,174.81412 c 0,0 -0.23328,4.64311 0.092,4.9684 0.92007,0.92008 7.17657,1.01209 7.17657,1.01209 l 6.1645,-0.36803 6.44053,-0.64405 c 0,0 3.8643,-0.27602 4.60037,-0.18402 0.73605,0.092 8.00464,0.18401 8.00464,0.18401 l 4.69237,-0.64405 v -7.4526 z"
       id="path16-2" /></g><path
     style="fill:#5c6369;fill-opacity:1;stroke:none;stroke-width:0.916001;stroke-linecap:round;stroke-linejoin:round;stroke-dasharray:none"
     d="m 202.82169,154.25508 -3e-5,13.59735 c 0.08,0.4725 0.31539,0.66016 1.10601,0.68312 0,0 7.14883,0.14353 7.41673,0.13012 1.50509,-0.0753 1.52536,-0.48952 1.49636,-1.49636 l 0.29277,-12.55641 c 0.0995,-0.43939 0.87749,-0.62398 0.91082,-0.74817 0.094,-0.38832 0.17133,-1.28909 -0.0325,-1.33372 l -11.80823,0.11386 c -0.0981,-0.0355 -0.10408,0.80326 0.0163,1.08977 0.13641,0.21836 0.57969,0.23941 0.60177,0.52044 z"
     id="path17" /><g
     id="g45"><g
       id="g16-6"
       style="fill:#3d8001;fill-opacity:1"
       transform="matrix(0.99023678,0,0,0.50543575,2.7378031,60.473024)"><path
         id="path9-0"
         style="stroke-width:0.916001;stroke-linecap:round;stroke-linejoin:round"
         d="m 297.73606,166.90149 a 9.9368029,10.488847 0 0 1 -9.9368,10.48885 9.9368029,10.488847 0 0 1 -9.93681,-10.48885 9.9368029,10.488847 0 0 1 9.93681,-10.48885 9.9368029,10.488847 0 0 1 9.9368,10.48885 z" /><path
         id="path10-3"
         style="stroke-width:1.04968;stroke-linecap:round;stroke-linejoin:round"
         d="m 284.85499,171.08783 a 7.4065981,7.7746282 0 0 1 -7.4066,7.77463 7.4065981,7.7746282 0 0 1 -7.40659,-7.77463 7.4065981,7.7746282 0 0 1 7.40659,-7.77463 7.4065981,7.7746282 0 0 1 7.4066,7.77463 z" /><path
         id="path11-80"
         style="stroke-width:1.04633;stroke-linecap:round;stroke-linejoin:round"
         d="m 281.54274,174.76813 a 9.246747,5.9344797 0 0 1 -9.24675,5.93448 9.246747,5.9344797 0 0 1 -9.24675,-5.93448 9.246747,5.9344797 0 0 1 9.24675,-5.93448 9.246747,5.9344797 0 0 1 9.24675,5.93448 z" /><path
         id="path12-1"
         style="stroke-width:0.916001;stroke-linecap:round;stroke-linejoin:round"
         d="m 299.94426,172.05389 a 4.048327,7.5446095 0 0 1 -4.04832,7.54461 4.048327,7.5446095 0 0 1 -4.04833,-7.54461 4.048327,7.5446095 0 0 1 4.04833,-7.54461 4.048327,7.5446095 0 0 1 4.04832,7.54461 z" /><path
         id="path13-25"
         style="stroke-width:0.916001;stroke-linecap:round;stroke-linejoin:round"
         d="m 295.89592,164.87732 a 3.3122675,2.5762081 0 0 1 -3.31227,2.57621 3.3122675,2.5762081 0 0 1 -3.31227,-2.57621 3.3122675,2.5762081 0 0 1 3.31227,-2.57621 3.3122675,2.5762081 0 0 1 3.31227,2.57621 z" /><path
         id="path14-0"
         style="stroke-width:0.916001;stroke-linecap:round;stroke-linejoin:round"
         d="m 299.94424,166.71747 a 3.8643124,4.048327 0 0 1 -3.86431,4.04833 3.8643124,4.048327 0 0 1 -3.86432,-4.04833 3.8643124,4.048327 0 0 1 3.86432,-4.04833 3.8643124,4.048327 0 0 1 3.86431,4.04833 z" /><path
         style="fill:#3d8001;fill-opacity:1;stroke:none;stroke-width:0.916001;stroke-linecap:round;stroke-linejoin:round;stroke-dasharray:none"
         id="path15-9"
         d="m 300.39523,171.86063 a 5.5664501,5.8424721 0 0 1 -5.01909,-2.71295 5.5664501,5.8424721 0 0 1 -0.17827,-5.92255 5.5664501,5.8424721 0 0 1 4.84594,-3.04006 l 0.0384,5.84233 z" /><path
         style="fill:#3d8001;fill-opacity:1;stroke:none;stroke-width:0.916001;stroke-linecap:round;stroke-linejoin:round;stroke-dasharray:none"
         d="m 263.04925,174.81412 c 0,0 -0.23328,4.64311 0.092,4.9684 0.92007,0.92008 7.17657,1.01209 7.17657,1.01209 l 6.1645,-0.36803 6.44053,-0.64405 c 0,0 3.8643,-0.27602 4.60037,-0.18402 0.73605,0.092 8.00464,0.18401 8.00464,0.18401 l 4.69237,-0.64405 v -7.4526 z"
         id="path16-4" /></g><g
       id="g44-2"
       transform="matrix(1,0,0,0.63434532,125.36293,54.573587)"><g
         id="g16-3-0"
         style="fill:#3d8001;fill-opacity:1"
         transform="translate(-184.3666,-27.132086)"><path
           id="path9-3-0"
           style="stroke-width:0.916001;stroke-linecap:round;stroke-linejoin:round"
           d="m 297.73606,166.90149 a 9.9368029,10.488847 0 0 1 -9.9368,10.48885 9.9368029,10.488847 0 0 1 -9.93681,-10.48885 9.9368029,10.488847 0 0 1 9.93681,-10.48885 9.9368029,10.488847 0 0 1 9.9368,10.48885 z" /><path
           id="path10-4-1"
           style="stroke-width:1.04968;stroke-linecap:round;stroke-linejoin:round"
           d="m 284.85499,171.08783 a 7.4065981,7.7746282 0 0 1 -7.4066,7.77463 7.4065981,7.7746282 0 0 1 -7.40659,-7.77463 7.4065981,7.7746282 0 0 1 7.40659,-7.77463 7.4065981,7.7746282 0 0 1 7.4066,7.77463 z" /><path
           id="path11-11-4"
           style="stroke-width:1.04633;stroke-linecap:round;stroke-linejoin:round"
           d="m 281.54274,174.76813 a 9.246747,5.9344797 0 0 1 -9.24675,5.93448 9.246747,5.9344797 0 0 1 -9.24675,-5.93448 9.246747,5.9344797 0 0 1 9.24675,-5.93448 9.246747,5.9344797 0 0 1 9.24675,5.93448 z" /><path
           id="path12-3-6"
           style="stroke-width:0.916001;stroke-linecap:round;stroke-linejoin:round"
           d="m 299.94426,172.05389 a 4.048327,7.5446095 0 0 1 -4.04832,7.54461 4.048327,7.5446095 0 0 1 -4.04833,-7.54461 4.048327,7.5446095 0 0 1 4.04833,-7.54461 4.048327,7.5446095 0 0 1 4.04832,7.54461 z" /><path
           id="path13-8-0"
           style="stroke-width:0.916001;stroke-linecap:round;stroke-linejoin:round"
           d="m 295.89592,164.87732 a 3.3122675,2.5762081 0 0 1 -3.31227,2.57621 3.3122675,2.5762081 0 0 1 -3.31227,-2.57621 3.3122675,2.5762081 0 0 1 3.31227,-2.57621 3.3122675,2.5762081 0 0 1 3.31227,2.57621 z" /><path
           id="path14-7-7"
           style="stroke-width:0.916001;stroke-linecap:round;stroke-linejoin:round"
           d="m 299.94424,166.71747 a 3.8643124,4.048327 0 0 1 -3.86431,4.04833 3.8643124,4.048327 0 0 1 -3.86432,-4.04833 3.8643124,4.048327 0 0 1 3.86432,-4.04833 3.8643124,4.048327 0 0 1 3.86431,4.04833 z" /><path
           style="fill:#3d8001;fill-opacity:1;stroke:none;stroke-width:0.916001;stroke-linecap:round;stroke-linejoin:round;stroke-dasharray:none"
           id="path15-4-1"
           d="m 300.39523,171.86063 a 5.5664501,5.8424721 0 0 1 -5.01909,-2.71295 5.5664501,5.8424721 0 0 1 -0.17827,-5.92255 5.5664501,5.8424721 0 0 1 4.84594,-3.04006 l 0.0384,5.84233 z" /><path
           style="fill:#3d8001;fill-opacity:1;stroke:none;stroke-width:0.916001;stroke-linecap:round;stroke-linejoin:round;stroke-dasharray:none"
           d="m 263.04925,174.81412 c 0,0 -0.23328,4.64311 0.092,4.9684 0.92007,0.92008 7.17657,1.01209 7.17657,1.01209 l 6.1645,-0.36803 6.44053,-0.64405 c 0,0 3.8643,-0.27602 4.60037,-0.18402 0.73605,0.092 8.00464,0.18401 8.00464,0.18401 l 4.69237,-0.64405 v -7.4526 z"
           id="path16-27-7" /></g><g
         id="g16-2-7-7"
         style="fill:#3d8001;fill-opacity:1"
         transform="matrix(-1,0,0,1,415.40626,-27.133629)"><path
           id="path9-7-6-7"
           style="stroke-width:0.916001;stroke-linecap:round;stroke-linejoin:round"
           d="m 297.73606,166.90149 a 9.9368029,10.488847 0 0 1 -9.9368,10.48885 9.9368029,10.488847 0 0 1 -9.93681,-10.48885 9.9368029,10.488847 0 0 1 9.93681,-10.48885 9.9368029,10.488847 0 0 1 9.9368,10.48885 z" /><path
           id="path10-6-1-7"
           style="stroke-width:1.04968;stroke-linecap:round;stroke-linejoin:round"
           d="m 284.85499,171.08783 a 7.4065981,7.7746282 0 0 1 -7.4066,7.77463 7.4065981,7.7746282 0 0 1 -7.40659,-7.77463 7.4065981,7.7746282 0 0 1 7.40659,-7.77463 7.4065981,7.7746282 0 0 1 7.4066,7.77463 z" /><path
           id="path11-1-8-3"
           style="stroke-width:1.04633;stroke-linecap:round;stroke-linejoin:round"
           d="m 281.54274,174.76813 a 9.246747,5.9344797 0 0 1 -9.24675,5.93448 9.246747,5.9344797 0 0 1 -9.24675,-5.93448 9.246747,5.9344797 0 0 1 9.24675,-5.93448 9.246747,5.9344797 0 0 1 9.24675,5.93448 z" /><path
           id="path12-4-9-3"
           style="stroke-width:0.916001;stroke-linecap:round;stroke-linejoin:round"
           d="m 299.94426,172.05389 a 4.048327,7.5446095 0 0 1 -4.04832,7.54461 4.048327,7.5446095 0 0 1 -4.04833,-7.54461 4.048327,7.5446095 0 0 1 4.04833,-7.54461 4.048327,7.5446095 0 0 1 4.04832,7.54461 z" /><path
           id="path13-2-2-5"
           style="stroke-width:0.916001;stroke-linecap:round;stroke-linejoin:round"
           d="m 295.89592,164.87732 a 3.3122675,2.5762081 0 0 1 -3.31227,2.57621 3.3122675,2.5762081 0 0 1 -3.31227,-2.57621 3.3122675,2.5762081 0 0 1 3.31227,-2.57621 3.3122675,2.5762081 0 0 1 3.31227,2.57621 z" /><path
           id="path14-3-7-9"
           style="stroke-width:0.916001;stroke-linecap:round;stroke-linejoin:round"
           d="m 299.94424,166.71747 a 3.8643124,4.048327 0 0 1 -3.86431,4.04833 3.8643124,4.048327 0 0 1 -3.86432,-4.04833 3.8643124,4.048327 0 0 1 3.86432,-4.04833 3.8643124,4.048327 0 0 1 3.86431,4.04833 z" /><path
           style="fill:#3d8001;fill-opacity:1;stroke:none;stroke-width:0.916001;stroke-linecap:round;stroke-linejoin:round;stroke-dasharray:none"
           id="path15-2-9-9"
           d="m 300.39523,171.86063 a 5.5664501,5.8424721 0 0 1 -5.01909,-2.71295 5.5664501,5.8424721 0 0 1 -0.17827,-5.92255 5.5664501,5.8424721 0 0 1 4.84594,-3.04006 l 0.0384,5.84233 z" /><path
           style="fill:#3d8001;fill-opacity:1;stroke:none;stroke-width:0.916001;stroke-linecap:round;stroke-linejoin:round;stroke-dasharray:none"
           d="m 263.04925,174.81412 c 0,0 -0.23328,4.64311 0.092,4.9684 0.92007,0.92008 7.17657,1.01209 7.17657,1.01209 l 6.1645,-0.36803 6.44053,-0.64405 c 0,0 3.8643,-0.27602 4.60037,-0.18402 0.73605,0.092 8.00464,0.18401 8.00464,0.18401 l 4.69237,-0.64405 v -7.4526 z"
           id="path16-2-5-8" /></g></g><g
       id="g16-1"
       style="fill:#3d8001;fill-opacity:1"
       transform="matrix(1,0,0,0.56238557,-80.599969,50.904791)"><path
         id="path9-2"
         style="stroke-width:0.916001;stroke-linecap:round;stroke-linejoin:round"
         d="m 297.73606,166.90149 a 9.9368029,10.488847 0 0 1 -9.9368,10.48885 9.9368029,10.488847 0 0 1 -9.93681,-10.48885 9.9368029,10.488847 0 0 1 9.93681,-10.48885 9.9368029,10.488847 0 0 1 9.9368,10.48885 z" /><path
         id="path10-0"
         style="stroke-width:1.04968;stroke-linecap:round;stroke-linejoin:round"
         d="m 284.85499,171.08783 a 7.4065981,7.7746282 0 0 1 -7.4066,7.77463 7.4065981,7.7746282 0 0 1 -7.40659,-7.77463 7.4065981,7.7746282 0 0 1 7.40659,-7.77463 7.4065981,7.7746282 0 0 1 7.4066,7.77463 z" /><path
         id="path11-16"
         style="stroke-width:1.04633;stroke-linecap:round;stroke-linejoin:round"
         d="m 281.54274,174.76813 a 9.246747,5.9344797 0 0 1 -9.24675,5.93448 9.246747,5.9344797 0 0 1 -9.24675,-5.93448 9.246747,5.9344797 0 0 1 9.24675,-5.93448 9.246747,5.9344797 0 0 1 9.24675,5.93448 z" /><path
         id="path12-40"
         style="stroke-width:0.916001;stroke-linecap:round;stroke-linejoin:round"
         d="m 299.94426,172.05389 a 4.048327,7.5446095 0 0 1 -4.04832,7.54461 4.048327,7.5446095 0 0 1 -4.04833,-7.54461 4.048327,7.5446095 0 0 1 4.04833,-7.54461 4.048327,7.5446095 0 0 1 4.04832,7.54461 z" /><path
         id="path13-61"
         style="stroke-width:0.916001;stroke-linecap:round;stroke-linejoin:round"
         d="m 295.89592,164.87732 a 3.3122675,2.5762081 0 0 1 -3.31227,2.57621 3.3122675,2.5762081 0 0 1 -3.31227,-2.57621 3.3122675,2.5762081 0 0 1 3.31227,-2.57621 3.3122675,2.5762081 0 0 1 3.31227,2.57621 z" /><path
         id="path14-8"
         style="stroke-width:0.916001;stroke-linecap:round;stroke-linejoin:round"
         d="m 299.94424,166.71747 a 3.8643124,4.048327 0 0 1 -3.86431,4.04833 3.8643124,4.048327 0 0 1 -3.86432,-4.04833 3.8643124,4.048327 0 0 1 3.86432,-4.04833 3.8643124,4.048327 0 0 1 3.86431,4.04833 z" /><path
         style="fill:#3d8001;fill-opacity:1;stroke:none;stroke-width:0.916001;stroke-linecap:round;stroke-linejoin:round;stroke-dasharray:none"
         id="path15-98"
         d="m 300.39523,171.86063 a 5.5664501,5.8424721 0 0 1 -5.01909,-2.71295 5.5664501,5.8424721 0 0 1 -0.17827,-5.92255 5.5664501,5.8424721 0 0 1 4.84594,-3.04006 l 0.0384,5.84233 z" /><path
         style="fill:#3d8001;fill-opacity:1;stroke:none;stroke-width:0.916001;stroke-linecap:round;stroke-linejoin:round;stroke-dasharray:none"
         d="m 263.04925,174.81412 c 0,0 -0.23328,4.64311 0.092,4.9684 0.92007,0.92008 7.17657,1.01209 7.17657,1.01209 l 6.1645,-0.36803 6.44053,-0.64405 c 0,0 3.8643,-0.27602 4.60037,-0.18402 0.73605,0.092 8.00464,0.18401 8.00464,0.18401 l 4.69237,-0.64405 v -7.4526 z"
         id="path16-41" /></g><g
       id="g16-8"
       style="fill:#3d8001;fill-opacity:1"
       transform="matrix(0.78911454,0,0,0.49644367,-38.180744,62.832157)"><path
         id="path9-08"
         style="stroke-width:0.916001;stroke-linecap:round;stroke-linejoin:round"
         d="m 297.73606,166.90149 a 9.9368029,10.488847 0 0 1 -9.9368,10.48885 9.9368029,10.488847 0 0 1 -9.93681,-10.48885 9.9368029,10.488847 0 0 1 9.93681,-10.48885 9.9368029,10.488847 0 0 1 9.9368,10.48885 z" /><path
         id="path10-77"
         style="stroke-width:1.04968;stroke-linecap:round;stroke-linejoin:round"
         d="m 284.85499,171.08783 a 7.4065981,7.7746282 0 0 1 -7.4066,7.77463 7.4065981,7.7746282 0 0 1 -7.40659,-7.77463 7.4065981,7.7746282 0 0 1 7.40659,-7.77463 7.4065981,7.7746282 0 0 1 7.4066,7.77463 z" /><path
         id="path11-83"
         style="stroke-width:1.04633;stroke-linecap:round;stroke-linejoin:round"
         d="m 281.54274,174.76813 a 9.246747,5.9344797 0 0 1 -9.24675,5.93448 9.246747,5.9344797 0 0 1 -9.24675,-5.93448 9.246747,5.9344797 0 0 1 9.24675,-5.93448 9.246747,5.9344797 0 0 1 9.24675,5.93448 z" /><path
         id="path12-8"
         style="stroke-width:0.916001;stroke-linecap:round;stroke-linejoin:round"
         d="m 299.94426,172.05389 a 4.048327,7.5446095 0 0 1 -4.04832,7.54461 4.048327,7.5446095 0 0 1 -4.04833,-7.54461 4.048327,7.5446095 0 0 1 4.04833,-7.54461 4.048327,7.5446095 0 0 1 4.04832,7.54461 z" /><path
         id="path13-3"
         style="stroke-width:0.916001;stroke-linecap:round;stroke-linejoin:round"
         d="m 295.89592,164.87732 a 3.3122675,2.5762081 0 0 1 -3.31227,2.57621 3.3122675,2.5762081 0 0 1 -3.31227,-2.57621 3.3122675,2.5762081 0 0 1 3.31227,-2.57621 3.3122675,2.5762081 0 0 1 3.31227,2.57621 z" /><path
         id="path14-71"
         style="stroke-width:0.916001;stroke-linecap:round;stroke-linejoin:round"
         d="m 299.94424,166.71747 a 3.8643124,4.048327 0 0 1 -3.86431,4.04833 3.8643124,4.048327 0 0 1 -3.86432,-4.04833 3.8643124,4.048327 0 0 1 3.86432,-4.04833 3.8643124,4.048327 0 0 1 3.86431,4.04833 z" /><path
         style="fill:#3d8001;fill-opacity:1;stroke:none;stroke-width:0.916001;stroke-linecap:round;stroke-linejoin:round;stroke-dasharray:none"
         id="path15-0"
         d="m 300.39523,171.86063 a 5.5664501,5.8424721 0 0 1 -5.01909,-2.71295 5.5664501,5.8424721 0 0 1 -0.17827,-5.92255 5.5664501,5.8424721 0 0 1 4.84594,-3.04006 l 0.0384,5.84233 z" /><path
         style="fill:#3d8001;fill-opacity:1;stroke:none;stroke-width:0.916001;stroke-linecap:round;stroke-linejoin:round;stroke-dasharray:none"
         d="m 263.04925,174.81412 c 0,0 -0.23328,4.64311 0.092,4.9684 0.92007,0.92008 7.17657,1.01209 7.17657,1.01209 l 6.1645,-0.36803 6.44053,-0.64405 c 0,0 3.8643,-0.27602 4.60037,-0.18402 0.73605,0.092 8.00464,0.18401 8.00464,0.18401 l 4.69237,-0.64405 v -7.4526 z"
         id="path16-7" /></g></g><path
     id="path24"
     style="fill:#5c6369;fill-opacity:1;stroke:none;stroke-width:0.916001;stroke-linecap:round;stroke-linejoin:round;stroke-dasharray:none"
     d="m 187.40872,118.31733 c -0.23082,-0.002 -0.4574,0.0687 -0.49403,0.22065 -0.0236,0.29501 -0.0471,0.58975 -0.0708,0.89969 l -1.36064,1.37718 -0.74982,0.0289 c -0.25138,0.15082 -0.26985,0.34269 0,0.58549 l 0.38085,0.0729 1.04438,4.51394 0.63717,0.27389 0.0538,21.52478 -0.25425,0.85266 -0.28422,7.61297 c 0.002,0.17127 0.114,0.40428 0.20515,0.40205 l 1.69964,0.0124 c 0.10105,0.0109 0.36169,-0.18955 0.34158,-0.45527 -0.005,-0.0677 -0.21135,-7.69307 -0.21135,-7.69307 l -0.30903,-0.71572 c -0.0251,-0.0582 -0.093,-21.53925 -0.093,-21.53925 l 0.7922,-0.1416 1.1343,-4.73718 h 0.34572 c 0.14264,-0.0128 0.23601,-0.53102 -0.008,-0.58962 l -0.5612,-0.008 -1.56166,-1.36633 c -0.0197,-0.30624 -0.0733,-0.73455 -0.1571,-0.9188 -0.0541,-0.1371 -0.28905,-0.21067 -0.51986,-0.21239 z m 1.64331,3.4773 -0.96584,3.49643 c 0,0 -1.28802,2.5e-4 -1.35702,0.0233 -0.0873,0.0291 -0.8971,-3.47369 -0.8971,-3.47369 z" /><g
     id="g46"><g
       id="g16-2-0"
       style="fill:#3d8001;fill-opacity:1"
       transform="matrix(-1,0,0,0.57737237,390.53312,47.804933)"><path
         id="path9-7-9"
         style="stroke-width:0.916001;stroke-linecap:round;stroke-linejoin:round"
         d="m 297.73606,166.90149 a 9.9368029,10.488847 0 0 1 -9.9368,10.48885 9.9368029,10.488847 0 0 1 -9.93681,-10.48885 9.9368029,10.488847 0 0 1 9.93681,-10.48885 9.9368029,10.488847 0 0 1 9.9368,10.48885 z" /><path
         id="path10-6-0"
         style="stroke-width:1.04968;stroke-linecap:round;stroke-linejoin:round"
         d="m 284.85499,171.08783 a 7.4065981,7.7746282 0 0 1 -7.4066,7.77463 7.4065981,7.7746282 0 0 1 -7.40659,-7.77463 7.4065981,7.7746282 0 0 1 7.40659,-7.77463 7.4065981,7.7746282 0 0 1 7.4066,7.77463 z" /><path
         id="path11-1-0"
         style="stroke-width:1.04633;stroke-linecap:round;stroke-linejoin:round"
         d="m 281.54274,174.76813 a 9.246747,5.9344797 0 0 1 -9.24675,5.93448 9.246747,5.9344797 0 0 1 -9.24675,-5.93448 9.246747,5.9344797 0 0 1 9.24675,-5.93448 9.246747,5.9344797 0 0 1 9.24675,5.93448 z" /><path
         id="path12-4-6"
         style="stroke-width:0.916001;stroke-linecap:round;stroke-linejoin:round"
         d="m 299.94426,172.05389 a 4.048327,7.5446095 0 0 1 -4.04832,7.54461 4.048327,7.5446095 0 0 1 -4.04833,-7.54461 4.048327,7.5446095 0 0 1 4.04833,-7.54461 4.048327,7.5446095 0 0 1 4.04832,7.54461 z" /><path
         id="path13-2-1"
         style="stroke-width:0.916001;stroke-linecap:round;stroke-linejoin:round"
         d="m 295.89592,164.87732 a 3.3122675,2.5762081 0 0 1 -3.31227,2.57621 3.3122675,2.5762081 0 0 1 -3.31227,-2.57621 3.3122675,2.5762081 0 0 1 3.31227,-2.57621 3.3122675,2.5762081 0 0 1 3.31227,2.57621 z" /><path
         id="path14-3-3"
         style="stroke-width:0.916001;stroke-linecap:round;stroke-linejoin:round"
         d="m 299.94424,166.71747 a 3.8643124,4.048327 0 0 1 -3.86431,4.04833 3.8643124,4.048327 0 0 1 -3.86432,-4.04833 3.8643124,4.048327 0 0 1 3.86432,-4.04833 3.8643124,4.048327 0 0 1 3.86431,4.04833 z" /><path
         style="fill:#3d8001;fill-opacity:1;stroke:none;stroke-width:0.916001;stroke-linecap:round;stroke-linejoin:round;stroke-dasharray:none"
         id="path15-2-8"
         d="m 300.39523,171.86063 a 5.5664501,5.8424721 0 0 1 -5.01909,-2.71295 5.5664501,5.8424721 0 0 1 -0.17827,-5.92255 5.5664501,5.8424721 0 0 1 4.84594,-3.04006 l 0.0384,5.84233 z" /><path
         style="fill:#3d8001;fill-opacity:1;stroke:none;stroke-width:0.916001;stroke-linecap:round;stroke-linejoin:round;stroke-dasharray:none"
         d="m 263.04925,174.81412 c 0,0 -0.23328,4.64311 0.092,4.9684 0.92007,0.92008 7.17657,1.01209 7.17657,1.01209 l 6.1645,-0.36803 6.44053,-0.64405 c 0,0 3.8643,-0.27602 4.60037,-0.18402 0.73605,0.092 8.00464,0.18401 8.00464,0.18401 l 4.69237,-0.64405 v -7.4526 z"
         id="path16-2-9" /></g><g
       id="g44"
       transform="matrix(1,0,0,0.63434532,-39.171691,54.725789)"><g
         id="g16-3"
         style="fill:#3d8001;fill-opacity:1"
         transform="translate(-184.3666,-27.132086)"><path
           id="path9-3"
           style="stroke-width:0.916001;stroke-linecap:round;stroke-linejoin:round"
           d="m 297.73606,166.90149 a 9.9368029,10.488847 0 0 1 -9.9368,10.48885 9.9368029,10.488847 0 0 1 -9.93681,-10.48885 9.9368029,10.488847 0 0 1 9.93681,-10.48885 9.9368029,10.488847 0 0 1 9.9368,10.48885 z" /><path
           id="path10-4"
           style="stroke-width:1.04968;stroke-linecap:round;stroke-linejoin:round"
           d="m 284.85499,171.08783 a 7.4065981,7.7746282 0 0 1 -7.4066,7.77463 7.4065981,7.7746282 0 0 1 -7.40659,-7.77463 7.4065981,7.7746282 0 0 1 7.40659,-7.77463 7.4065981,7.7746282 0 0 1 7.4066,7.77463 z" /><path
           id="path11-11"
           style="stroke-width:1.04633;stroke-linecap:round;stroke-linejoin:round"
           d="m 281.54274,174.76813 a 9.246747,5.9344797 0 0 1 -9.24675,5.93448 9.246747,5.9344797 0 0 1 -9.24675,-5.93448 9.246747,5.9344797 0 0 1 9.24675,-5.93448 9.246747,5.9344797 0 0 1 9.24675,5.93448 z" /><path
           id="path12-3"
           style="stroke-width:0.916001;stroke-linecap:round;stroke-linejoin:round"
           d="m 299.94426,172.05389 a 4.048327,7.5446095 0 0 1 -4.04832,7.54461 4.048327,7.5446095 0 0 1 -4.04833,-7.54461 4.048327,7.5446095 0 0 1 4.04833,-7.54461 4.048327,7.5446095 0 0 1 4.04832,7.54461 z" /><path
           id="path13-8"
           style="stroke-width:0.916001;stroke-linecap:round;stroke-linejoin:round"
           d="m 295.89592,164.87732 a 3.3122675,2.5762081 0 0 1 -3.31227,2.57621 3.3122675,2.5762081 0 0 1 -3.31227,-2.57621 3.3122675,2.5762081 0 0 1 3.31227,-2.57621 3.3122675,2.5762081 0 0 1 3.31227,2.57621 z" /><path
           id="path14-7"
           style="stroke-width:0.916001;stroke-linecap:round;stroke-linejoin:round"
           d="m 299.94424,166.71747 a 3.8643124,4.048327 0 0 1 -3.86431,4.04833 3.8643124,4.048327 0 0 1 -3.86432,-4.04833 3.8643124,4.048327 0 0 1 3.86432,-4.04833 3.8643124,4.048327 0 0 1 3.86431,4.04833 z" /><path
           style="fill:#3d8001;fill-opacity:1;stroke:none;stroke-width:0.916001;stroke-linecap:round;stroke-linejoin:round;stroke-dasharray:none"
           id="path15-4"
           d="m 300.39523,171.86063 a 5.5664501,5.8424721 0 0 1 -5.01909,-2.71295 5.5664501,5.8424721 0 0 1 -0.17827,-5.92255 5.5664501,5.8424721 0 0 1 4.84594,-3.04006 l 0.0384,5.84233 z" /><path
           style="fill:#3d8001;fill-opacity:1;stroke:none;stroke-width:0.916001;stroke-linecap:round;stroke-linejoin:round;stroke-dasharray:none"
           d="m 263.04925,174.81412 c 0,0 -0.23328,4.64311 0.092,4.9684 0.92007,0.92008 7.17657,1.01209 7.17657,1.01209 l 6.1645,-0.36803 6.44053,-0.64405 c 0,0 3.8643,-0.27602 4.60037,-0.18402 0.73605,0.092 8.00464,0.18401 8.00464,0.18401 l 4.69237,-0.64405 v -7.4526 z"
           id="path16-27" /></g><g
         id="g16-2-7"
         style="fill:#3d8001;fill-opacity:1"
         transform="matrix(-1,0,0,1,415.40626,-27.133629)"><path
           id="path9-7-6"
           style="stroke-width:0.916001;stroke-linecap:round;stroke-linejoin:round"
           d="m 297.73606,166.90149 a 9.9368029,10.488847 0 0 1 -9.9368,10.48885 9.9368029,10.488847 0 0 1 -9.93681,-10.48885 9.9368029,10.488847 0 0 1 9.93681,-10.48885 9.9368029,10.488847 0 0 1 9.9368,10.48885 z" /><path
           id="path10-6-1"
           style="stroke-width:1.04968;stroke-linecap:round;stroke-linejoin:round"
           d="m 284.85499,171.08783 a 7.4065981,7.7746282 0 0 1 -7.4066,7.77463 7.4065981,7.7746282 0 0 1 -7.40659,-7.77463 7.4065981,7.7746282 0 0 1 7.40659,-7.77463 7.4065981,7.7746282 0 0 1 7.4066,7.77463 z" /><path
           id="path11-1-8"
           style="stroke-width:1.04633;stroke-linecap:round;stroke-linejoin:round"
           d="m 281.54274,174.76813 a 9.246747,5.9344797 0 0 1 -9.24675,5.93448 9.246747,5.9344797 0 0 1 -9.24675,-5.93448 9.246747,5.9344797 0 0 1 9.24675,-5.93448 9.246747,5.9344797 0 0 1 9.24675,5.93448 z" /><path
           id="path12-4-9"
           style="stroke-width:0.916001;stroke-linecap:round;stroke-linejoin:round"
           d="m 299.94426,172.05389 a 4.048327,7.5446095 0 0 1 -4.04832,7.54461 4.048327,7.5446095 0 0 1 -4.04833,-7.54461 4.048327,7.5446095 0 0 1 4.04833,-7.54461 4.048327,7.5446095 0 0 1 4.04832,7.54461 z" /><path
           id="path13-2-2"
           style="stroke-width:0.916001;stroke-linecap:round;stroke-linejoin:round"
           d="m 295.89592,164.87732 a 3.3122675,2.5762081 0 0 1 -3.31227,2.57621 3.3122675,2.5762081 0 0 1 -3.31227,-2.57621 3.3122675,2.5762081 0 0 1 3.31227,-2.57621 3.3122675,2.5762081 0 0 1 3.31227,2.57621 z" /><path
           id="path14-3-7"
           style="stroke-width:0.916001;stroke-linecap:round;stroke-linejoin:round"
           d="m 299.94424,166.71747 a 3.8643124,4.048327 0 0 1 -3.86431,4.04833 3.8643124,4.048327 0 0 1 -3.86432,-4.04833 3.8643124,4.048327 0 0 1 3.86432,-4.04833 3.8643124,4.048327 0 0 1 3.86431,4.04833 z" /><path
           style="fill:#3d8001;fill-opacity:1;stroke:none;stroke-width:0.916001;stroke-linecap:round;stroke-linejoin:round;stroke-dasharray:none"
           id="path15-2-9"
           d="m 300.39523,171.86063 a 5.5664501,5.8424721 0 0 1 -5.01909,-2.71295 5.5664501,5.8424721 0 0 1 -0.17827,-5.92255 5.5664501,5.8424721 0 0 1 4.84594,-3.04006 l 0.0384,5.84233 z" /><path
           style="fill:#3d8001;fill-opacity:1;stroke:none;stroke-width:0.916001;stroke-linecap:round;stroke-linejoin:round;stroke-dasharray:none"
           d="m 263.04925,174.81412 c 0,0 -0.23328,4.64311 0.092,4.9684 0.92007,0.92008 7.17657,1.01209 7.17657,1.01209 l 6.1645,-0.36803 6.44053,-0.64405 c 0,0 3.8643,-0.27602 4.60037,-0.18402 0.73605,0.092 8.00464,0.18401 8.00464,0.18401 l 4.69237,-0.64405 v -7.4526 z"
           id="path16-2-5" /></g></g><g
       id="g16-5"
       style="fill:#3d8001;fill-opacity:1"
       transform="matrix(1.0507687,0,0,0.67328786,-266.23769,30.706039)"><path
         id="path9-9"
         style="stroke-width:0.916001;stroke-linecap:round;stroke-linejoin:round"
         d="m 297.73606,166.90149 a 9.9368029,10.488847 0 0 1 -9.9368,10.48885 9.9368029,10.488847 0 0 1 -9.93681,-10.48885 9.9368029,10.488847 0 0 1 9.93681,-10.48885 9.9368029,10.488847 0 0 1 9.9368,10.48885 z" /><path
         id="path10-8"
         style="stroke-width:1.04968;stroke-linecap:round;stroke-linejoin:round"
         d="m 284.85499,171.08783 a 7.4065981,7.7746282 0 0 1 -7.4066,7.77463 7.4065981,7.7746282 0 0 1 -7.40659,-7.77463 7.4065981,7.7746282 0 0 1 7.40659,-7.77463 7.4065981,7.7746282 0 0 1 7.4066,7.77463 z" /><path
         id="path11-4"
         style="stroke-width:1.04633;stroke-linecap:round;stroke-linejoin:round"
         d="m 281.54274,174.76813 a 9.246747,5.9344797 0 0 1 -9.24675,5.93448 9.246747,5.9344797 0 0 1 -9.24675,-5.93448 9.246747,5.9344797 0 0 1 9.24675,-5.93448 9.246747,5.9344797 0 0 1 9.24675,5.93448 z" /><path
         id="path12-0"
         style="stroke-width:0.916001;stroke-linecap:round;stroke-linejoin:round"
         d="m 299.94426,172.05389 a 4.048327,7.5446095 0 0 1 -4.04832,7.54461 4.048327,7.5446095 0 0 1 -4.04833,-7.54461 4.048327,7.5446095 0 0 1 4.04833,-7.54461 4.048327,7.5446095 0 0 1 4.04832,7.54461 z" /><path
         id="path13-7"
         style="stroke-width:0.916001;stroke-linecap:round;stroke-linejoin:round"
         d="m 295.89592,164.87732 a 3.3122675,2.5762081 0 0 1 -3.31227,2.57621 3.3122675,2.5762081 0 0 1 -3.31227,-2.57621 3.3122675,2.5762081 0 0 1 3.31227,-2.57621 3.3122675,2.5762081 0 0 1 3.31227,2.57621 z" /><path
         id="path14-6"
         style="stroke-width:0.916001;stroke-linecap:round;stroke-linejoin:round"
         d="m 299.94424,166.71747 a 3.8643124,4.048327 0 0 1 -3.86431,4.04833 3.8643124,4.048327 0 0 1 -3.86432,-4.04833 3.8643124,4.048327 0 0 1 3.86432,-4.04833 3.8643124,4.048327 0 0 1 3.86431,4.04833 z" /><path
         style="fill:#3d8001;fill-opacity:1;stroke:none;stroke-width:0.916001;stroke-linecap:round;stroke-linejoin:round;stroke-dasharray:none"
         id="path15-3"
         d="m 300.39523,171.86063 a 5.5664501,5.8424721 0 0 1 -5.01909,-2.71295 5.5664501,5.8424721 0 0 1 -0.17827,-5.92255 5.5664501,5.8424721 0 0 1 4.84594,-3.04006 l 0.0384,5.84233 z" /><path
         style="fill:#3d8001;fill-opacity:1;stroke:none;stroke-width:0.916001;stroke-linecap:round;stroke-linejoin:round;stroke-dasharray:none"
         d="m 263.04925,174.81412 c 0,0 -0.23328,4.64311 0.092,4.9684 0.92007,0.92008 7.17657,1.01209 7.17657,1.01209 l 6.1645,-0.36803 6.44053,-0.64405 c 0,0 3.8643,-0.27602 4.60037,-0.18402 0.73605,0.092 8.00464,0.18401 8.00464,0.18401 l 4.69237,-0.64405 v -7.4526 z"
         id="path16-6" /></g><g
       id="g16-09"
       style="fill:#3d8001;fill-opacity:1"
       transform="matrix(0.65828744,0,0,0.54140406,-174.97697,54.562761)"><path
         id="path9-73"
         style="stroke-width:0.916001;stroke-linecap:round;stroke-linejoin:round"
         d="m 297.73606,166.90149 a 9.9368029,10.488847 0 0 1 -9.9368,10.48885 9.9368029,10.488847 0 0 1 -9.93681,-10.48885 9.9368029,10.488847 0 0 1 9.93681,-10.48885 9.9368029,10.488847 0 0 1 9.9368,10.48885 z" /><path
         id="path10-7"
         style="stroke-width:1.04968;stroke-linecap:round;stroke-linejoin:round"
         d="m 284.85499,171.08783 a 7.4065981,7.7746282 0 0 1 -7.4066,7.77463 7.4065981,7.7746282 0 0 1 -7.40659,-7.77463 7.4065981,7.7746282 0 0 1 7.40659,-7.77463 7.4065981,7.7746282 0 0 1 7.4066,7.77463 z" /><path
         id="path11-2"
         style="stroke-width:1.04633;stroke-linecap:round;stroke-linejoin:round"
         d="m 281.54274,174.76813 a 9.246747,5.9344797 0 0 1 -9.24675,5.93448 9.246747,5.9344797 0 0 1 -9.24675,-5.93448 9.246747,5.9344797 0 0 1 9.24675,-5.93448 9.246747,5.9344797 0 0 1 9.24675,5.93448 z" /><path
         id="path12-6"
         style="stroke-width:0.916001;stroke-linecap:round;stroke-linejoin:round"
         d="m 299.94426,172.05389 a 4.048327,7.5446095 0 0 1 -4.04832,7.54461 4.048327,7.5446095 0 0 1 -4.04833,-7.54461 4.048327,7.5446095 0 0 1 4.04833,-7.54461 4.048327,7.5446095 0 0 1 4.04832,7.54461 z" /><path
         id="path13-0"
         style="stroke-width:0.916001;stroke-linecap:round;stroke-linejoin:round"
         d="m 295.89592,164.87732 a 3.3122675,2.5762081 0 0 1 -3.31227,2.57621 3.3122675,2.5762081 0 0 1 -3.31227,-2.57621 3.3122675,2.5762081 0 0 1 3.31227,-2.57621 3.3122675,2.5762081 0 0 1 3.31227,2.57621 z" /><path
         id="path14-1"
         style="stroke-width:0.916001;stroke-linecap:round;stroke-linejoin:round"
         d="m 299.94424,166.71747 a 3.8643124,4.048327 0 0 1 -3.86431,4.04833 3.8643124,4.048327 0 0 1 -3.86432,-4.04833 3.8643124,4.048327 0 0 1 3.86432,-4.04833 3.8643124,4.048327 0 0 1 3.86431,4.04833 z" /><path
         style="fill:#3d8001;fill-opacity:1;stroke:none;stroke-width:0.916001;stroke-linecap:round;stroke-linejoin:round;stroke-dasharray:none"
         id="path15-6"
         d="m 300.39523,171.86063 a 5.5664501,5.8424721 0 0 1 -5.01909,-2.71295 5.5664501,5.8424721 0 0 1 -0.17827,-5.92255 5.5664501,5.8424721 0 0 1 4.84594,-3.04006 l 0.0384,5.84233 z" /><path
         style="fill:#3d8001;fill-opacity:1;stroke:none;stroke-width:0.916001;stroke-linecap:round;stroke-linejoin:round;stroke-dasharray:none"
         d="m 263.04925,174.81412 c 0,0 -0.23328,4.64311 0.092,4.9684 0.92007,0.92008 7.17657,1.01209 7.17657,1.01209 l 6.1645,-0.36803 6.44053,-0.64405 c 0,0 3.8643,-0.27602 4.60037,-0.18402 0.73605,0.092 8.00464,0.18401 8.00464,0.18401 l 4.69237,-0.64405 v -7.4526 z"
         id="path16-5" /></g></g><path
     id="path24-8"
     style="fill:#5c6369;fill-opacity:1;stroke:none;stroke-width:0.916001;stroke-linecap:round;stroke-linejoin:round;stroke-dasharray:none"
     d="m 120.8576,119.16492 c -0.23082,-0.002 -0.4574,0.0687 -0.49403,0.22065 -0.0236,0.29501 -0.0471,0.58975 -0.0708,0.89969 l -1.36064,1.37718 -0.74982,0.0289 c -0.25138,0.15082 -0.26985,0.34269 0,0.58549 l 0.38085,0.0729 1.04438,4.51394 0.63717,0.27389 0.0538,21.52478 -0.25425,0.85266 -0.28422,7.61297 c 0.002,0.17127 0.114,0.40428 0.20515,0.40205 l 1.69964,0.0124 c 0.10105,0.0109 0.36169,-0.18955 0.34158,-0.45527 -0.005,-0.0677 -0.21135,-7.69307 -0.21135,-7.69307 l -0.30903,-0.71572 c -0.0251,-0.0582 -0.093,-21.53925 -0.093,-21.53925 l 0.7922,-0.1416 1.1343,-4.73718 h 0.34572 c 0.14264,-0.0128 0.23601,-0.53102 -0.008,-0.58962 l -0.5612,-0.008 -1.56166,-1.36633 c -0.0197,-0.30624 -0.0733,-0.73455 -0.1571,-0.9188 -0.0541,-0.1371 -0.28905,-0.21067 -0.51986,-0.21239 z m 1.64331,3.4773 -0.96584,3.49643 c 0,0 -1.28802,2.5e-4 -1.35702,0.0233 -0.0873,0.0291 -0.8971,-3.47369 -0.8971,-3.47369 z" /><path
     id="path24-8-1"
     style="fill:#5c6369;fill-opacity:1;stroke:none;stroke-width:1.79762;stroke-linecap:round;stroke-linejoin:round;stroke-dasharray:none"
     d="m 94.709711,90.3072 c -0.449942,-0.0041 -0.89162,0.135732 -0.963024,0.435929 -0.046,0.58285 -0.09181,1.165173 -0.138012,1.777516 l -2.652327,2.720888 -1.461642,0.05706 c -0.49002,0.297967 -0.526024,0.677047 0,1.15675 l 0.7424,0.144023 2.035834,8.918154 1.242051,0.54112 0.104873,42.52639 -0.495615,1.6846 -0.554037,15.0409 c 0.0039,0.33838 0.222223,0.79874 0.399904,0.79433 l 3.313148,0.0245 c 0.196979,0.0216 0.70505,-0.37449 0.665849,-0.89948 -0.0097,-0.13375 -0.411989,-15.19915 -0.411989,-15.19915 l -0.602399,-1.41405 C 95.885795,148.5017 95.753438,106.0617 95.753438,106.0617 l 1.544253,-0.27975 2.211122,-9.359212 h 0.673927 c 0.27805,-0.02534 0.46006,-1.049133 -0.0156,-1.164909 l -1.093971,-0.01581 -3.04418,-2.699452 c -0.0384,-0.605036 -0.142885,-1.451251 -0.306239,-1.81527 -0.105458,-0.270866 -0.563452,-0.416216 -1.013375,-0.419621 z m 3.203343,6.870082 -1.882735,6.907858 c 0,0 -2.510767,4.9e-4 -2.64527,0.046 -0.170176,0.0575 -1.748738,-6.862925 -1.748738,-6.862925 z" /><path
     style="fill:#996c41;fill-opacity:1;stroke-width:2.065"
     d="m 37.517091,172.13419 15.128275,0.69118 27.401426,-6.47894 -11.265461,-0.77514 z"
     id="path18" /><path
     style="fill:#996c41;fill-opacity:1;stroke-width:2.065"
     d="m 33.02124,157.14803 3.702971,12.0553 32.470532,-5.64742 -2.015382,-9.14673 z"
     id="path19" /><path
     style="fill:#735130;fill-opacity:1;stroke-width:2.065"
     d="m 52.658285,172.80599 0.258381,2.22208 -16.019692,-0.51676 0.516763,-2.42879 z"
     id="path20" /><path
     style="fill:#735130;fill-opacity:1;stroke-width:2.065"
     d="m 36.788427,169.23987 -2.882417,-0.0262 -2.796797,-11.23887 1.963703,-0.8785 z"
     id="path21" /><path
     style="fill:#465051;fill-opacity:1;stroke-width:2.065"
     d="m 63.562012,176.26831 2.222085,0.36173 1.240234,-5.22558 -2.58382,0.5747 z"
     id="path27" /><path
     style="fill:#886039;fill-opacity:1;stroke-width:2.065"
     d="m 52.658283,172.79953 27.382051,-6.47247 0.258382,1.78929 -27.40143,6.89234 z"
     id="path22" /><path
     style="fill:#465051;fill-opacity:1;stroke-width:2.065"
     d="m 50.481413,174.96348 c 0,0 0.665336,0.88495 0.574901,1.51153 -0.0925,0.64087 0.413412,8.1132 0.413412,8.1132 l 2.377117,-0.15502 -0.503847,-9.5666 z"
     id="path23" /><path
     style="fill:#465051;fill-opacity:1;stroke-width:2.065"
     d="m 33.124592,183.60636 2.635499,0.15503 2.155274,-9.25403 -0.93931,-0.0571 0.502167,-2.33117 0.567902,-0.0634 -0.994123,-3.02204 -2.945556,0.15503 1.136883,5.32267 z"
     id="path25" /><path
     style="fill:#465051;fill-opacity:1;stroke-width:2.065"
     d="m 76.584473,177.14681 2.118733,-0.20671 -0.865581,-8.21009 -2.312519,0.56198 z"
     id="path26" /><path
     style="fill:#465051;fill-opacity:1;stroke-width:2.065"
     d="m 65.034789,164.26 0.174408,2.06706 2.03476,-0.43279 -0.29068,-1.98955 z"
     id="path28" /><g
     id="g53"><g
       id="g33"
       style="fill:#759238;fill-opacity:1"><path
         id="path30"
         style="opacity:1;stroke-width:2.1367"
         d="M 42.241116,98.376961 A 19.80509,21.056711 0 0 1 22.436026,119.43367 19.80509,21.056711 0 0 1 2.6309357,98.376961 19.80509,21.056711 0 0 1 22.436026,77.32025 19.80509,21.056711 0 0 1 42.241116,98.376961 Z" /><path
         id="path31"
         style="opacity:1;stroke-width:4.98363"
         d="M 53.057186,110.49925 A 13.373917,16.370258 0 0 1 39.68327,126.86951 13.373917,16.370258 0 0 1 26.309353,110.49925 13.373917,16.370258 0 0 1 39.68327,94.128994 13.373917,16.370258 0 0 1 53.057186,110.49925 Z" /><path
         style="opacity:1;fill:#759238;fill-opacity:1;stroke-width:4.91997"
         id="path32"
         d="M -0.14519661,96.589677 A 12.760883,16.151014 0 0 1 15.913223,100.49022 12.760883,16.151014 0 0 1 15.75631,121.18476 12.760883,16.151014 0 0 1 -0.35829673,124.69453" /></g><path
       id="path33"
       style="fill:#759238;stroke-width:2.3576"
       d="m 28.375027,124.09241 a 10.021868,8.4774561 0 0 1 -10.021868,8.47745 10.021868,8.4774561 0 0 1 -10.0218678,-8.47745 10.021868,8.4774561 0 0 1 10.0218678,-8.47746 10.021868,8.4774561 0 0 1 10.021868,8.47746 z" /><path
       id="path34"
       style="fill:#759238;stroke-width:2.27105"
       d="m 40.048667,122.77694 a 11.762031,9.0621071 0 0 1 -11.762031,9.06211 11.762031,9.0621071 0 0 1 -11.76203,-9.06211 11.762031,9.0621071 0 0 1 11.76203,-9.06211 11.762031,9.0621071 0 0 1 11.762031,9.06211 z" /></g><path
     style="fill:#614d37;fill-opacity:1;stroke-width:2.065"
     d="m 21.193638,157.27141 0.876978,-31.57121 -9.354433,-9.93909 1.607793,-0.87697 7.454314,7.60047 0.438489,-15.20095 -2.192445,-3.50792 0.876978,-1.02314 1.607793,3.06943 0.876978,-5.992686 1.315468,0.438486 -0.146163,7.60048 4.38489,-5.70036 1.169305,1.16931 -4.531054,5.99268 -0.438489,13.447 9.354432,-9.20827 0.730816,-0.43849 1.315466,-1.75396 0.438492,1.02314 -11.400717,14.47014 0.146163,20.60899 0.876979,9.35443 z"
     id="path29" /><g
     id="g43"
     transform="translate(-1.1693042,-0.58465209)"><path
       id="path35"
       style="opacity:1;fill:#608333;stroke-width:2.065"
       d="M 21.193639,111.74163 A 7.8928032,11.766123 0 0 1 13.300836,123.50775 7.8928032,11.766123 0 0 1 5.4080324,111.74163 7.8928032,11.766123 0 0 1 13.300836,99.975508 7.8928032,11.766123 0 0 1 21.193639,111.74163 Z" /><g
       id="g42"
       transform="translate(1.6077932,2.7770975)"><path
         id="path36"
         style="opacity:1;fill:#608333;stroke-width:2.065"
         d="M 40.340995,103.19109 A 15.858687,11.254553 0 0 1 24.482307,114.44565 15.858687,11.254553 0 0 1 8.62362,103.19109 15.858687,11.254553 0 0 1 24.482307,91.936541 15.858687,11.254553 0 0 1 40.340995,103.19109 Z" /><path
         id="path37"
         style="opacity:1;fill:#608333;stroke-width:2.065"
         d="m 47.649142,108.45296 a 15.05479,9.646759 0 0 1 -15.054789,9.64676 15.05479,9.646759 0 0 1 -15.05479,-9.64676 15.05479,9.646759 0 0 1 15.05479,-9.646762 15.05479,9.646759 0 0 1 15.054789,9.646762 z" /><path
         id="path38"
         style="opacity:1;fill:#608333;stroke-width:2.065"
         d="m 30.986561,90.913399 a 9.500597,9.208271 0 0 1 -9.500597,9.208271 9.500597,9.208271 0 0 1 -9.500597,-9.208271 9.500597,9.208271 0 0 1 9.500597,-9.208271 9.500597,9.208271 0 0 1 9.500597,9.208271 z" /><path
         id="path39"
         style="opacity:1;fill:#608333;stroke-width:2.065"
         d="M 17.3934,113.49558 A 8.2582111,11.035308 0 0 1 9.1351891,124.53089 8.2582111,11.035308 0 0 1 0.87697792,113.49558 8.2582111,11.035308 0 0 1 9.1351891,102.46027 8.2582111,11.035308 0 0 1 17.3934,113.49558 Z" /><path
         id="path40"
         style="opacity:1;fill:#608333;stroke-width:2.065"
         d="m 39.025529,118.02663 a 4.7502985,6.3580914 0 0 1 -4.750299,6.35809 4.7502985,6.3580914 0 0 1 -4.750298,-6.35809 4.7502985,6.3580914 0 0 1 4.750298,-6.35809 4.7502985,6.3580914 0 0 1 4.750299,6.35809 z" /><path
         id="path41"
         style="opacity:1;fill:#608333;stroke-width:2.065"
         d="m 47.502982,114.51873 a 4.4579725,4.7502985 0 0 1 -4.457972,4.7503 4.4579725,4.7502985 0 0 1 -4.457973,-4.7503 4.4579725,4.7502985 0 0 1 4.457973,-4.7503 4.4579725,4.7502985 0 0 1 4.457972,4.7503 z" /><path
         id="path42"
         style="opacity:1;fill:#608333;stroke-width:2.065"
         d="m 37.563895,93.982819 a 5.042624,4.5310535 0 0 1 -5.042624,4.531053 5.042624,4.5310535 0 0 1 -5.042624,-4.531053 5.042624,4.5310535 0 0 1 5.042624,-4.531054 5.042624,4.5310535 0 0 1 5.042624,4.531054 z" /></g></g><g
     id="g70-5"
     transform="matrix(0.88188561,0,0,0.78780132,83.642481,3.0810813)"><path
       style="opacity:1;fill:#ffffff;fill-opacity:1;stroke-width:3.01581"
       id="path65-1"
       d="M 30.702029,48.840969 A 8.9524841,8.6601591 0 0 1 31.23242,36.927778 8.9524841,8.6601591 0 0 1 43.558655,36.819913 8.9524841,8.6601591 0 0 1 44.311757,48.721872" /><path
       id="path66-0"
       style="opacity:1;fill:#ffffff;stroke-width:2.79096"
       d="m 29.451849,45.164371 a 3.2886679,2.8501794 0 0 1 -3.288668,2.85018 3.2886679,2.8501794 0 0 1 -3.288668,-2.85018 3.2886679,2.8501794 0 0 1 3.288668,-2.850179 3.2886679,2.8501794 0 0 1 3.288668,2.850179 z" /><path
       style="opacity:1;fill:#ffffff;fill-opacity:1;stroke-width:6.29255"
       id="path67-9"
       d="m 17.591232,49.346584 a 4.1108351,4.7502985 0 0 1 4.103125,-3.999229 4.1108351,4.7502985 0 0 1 4.028171,4.099716" /><path
       id="path68-9"
       style="opacity:1;fill:#ffffff;stroke-width:3.43445"
       d="m 51.759984,44.762424 a 3.1333699,2.557853 0 0 1 -3.13337,2.557853 3.1333699,2.557853 0 0 1 -3.13337,-2.557853 3.1333699,2.557853 0 0 1 3.13337,-2.557853 3.1333699,2.557853 0 0 1 3.13337,2.557853 z" /><path
       style="opacity:1;fill:#ffffff;fill-opacity:1;stroke-width:7.35645"
       id="path69-6"
       d="m 48.014548,49.311749 a 4.604135,4.0742941 0 0 1 4.485177,-4.072934 4.604135,4.0742941 0 0 1 4.716946,3.862467" /><path
       style="opacity:1;fill:#ffffff;fill-opacity:1;stroke-width:2.065"
       d="m 57.20581,49.040933 -0.01291,0.503846 -39.661662,0.103354 0.07751,-0.374655 6.575826,-2.9068 5.684409,-1.175639 9.237162,0.180869 8.10028,-0.775147 5.981546,2.247924 z"
       id="path70-8" /></g><g
     id="g70-9"
     transform="matrix(0.57323995,0,0,0.52904347,151.69468,45.091688)"><path
       style="opacity:1;fill:#ffffff;fill-opacity:1;stroke-width:3.01581"
       id="path65-9"
       d="M 30.702029,48.840969 A 8.9524841,8.6601591 0 0 1 31.23242,36.927778 8.9524841,8.6601591 0 0 1 43.558655,36.819913 8.9524841,8.6601591 0 0 1 44.311757,48.721872" /><path
       id="path66-2"
       style="opacity:1;fill:#ffffff;stroke-width:2.79096"
       d="m 29.451849,45.164371 a 3.2886679,2.8501794 0 0 1 -3.288668,2.85018 3.2886679,2.8501794 0 0 1 -3.288668,-2.85018 3.2886679,2.8501794 0 0 1 3.288668,-2.850179 3.2886679,2.8501794 0 0 1 3.288668,2.850179 z" /><path
       style="opacity:1;fill:#ffffff;fill-opacity:1;stroke-width:6.29255"
       id="path67-5"
       d="m 17.591232,49.346584 a 4.1108351,4.7502985 0 0 1 4.103125,-3.999229 4.1108351,4.7502985 0 0 1 4.028171,4.099716" /><path
       id="path68-5"
       style="opacity:1;fill:#ffffff;stroke-width:3.43445"
       d="m 51.759984,44.762424 a 3.1333699,2.557853 0 0 1 -3.13337,2.557853 3.1333699,2.557853 0 0 1 -3.13337,-2.557853 3.1333699,2.557853 0 0 1 3.13337,-2.557853 3.1333699,2.557853 0 0 1 3.13337,2.557853 z" /><path
       style="opacity:1;fill:#ffffff;fill-opacity:1;stroke-width:7.35645"
       id="path69-3"
       d="m 48.014548,49.311749 a 4.604135,4.0742941 0 0 1 4.485177,-4.072934 4.604135,4.0742941 0 0 1 4.716946,3.862467" /><path
       style="opacity:1;fill:#ffffff;fill-opacity:1;stroke-width:2.065"
       d="m 57.20581,49.040933 -0.01291,0.503846 -39.661662,0.103354 0.07751,-0.374655 6.575826,-2.9068 5.684409,-1.175639 9.237162,0.180869 8.10028,-0.775147 5.981546,2.247924 z"
       id="path70-3" /></g><g
     id="g70-8"
     transform="matrix(1.1252234,0,0,1.042355,202.56402,3.0245484)"><path
       style="opacity:1;fill:#ffffff;fill-opacity:1;stroke-width:3.01581"
       id="path65-0"
       d="M 30.702029,48.840969 A 8.9524841,8.6601591 0 0 1 31.23242,36.927778 8.9524841,8.6601591 0 0 1 43.558655,36.819913 8.9524841,8.6601591 0 0 1 44.311757,48.721872" /><path
       id="path66-8"
       style="opacity:1;fill:#ffffff;stroke-width:2.79096"
       d="m 29.451849,45.164371 a 3.2886679,2.8501794 0 0 1 -3.288668,2.85018 3.2886679,2.8501794 0 0 1 -3.288668,-2.85018 3.2886679,2.8501794 0 0 1 3.288668,-2.850179 3.2886679,2.8501794 0 0 1 3.288668,2.850179 z" /><path
       style="opacity:1;fill:#ffffff;fill-opacity:1;stroke-width:6.29255"
       id="path67-8"
       d="m 17.591232,49.346584 a 4.1108351,4.7502985 0 0 1 4.103125,-3.999229 4.1108351,4.7502985 0 0 1 4.028171,4.099716" /><path
       id="path68-0"
       style="opacity:1;fill:#ffffff;stroke-width:3.43445"
       d="m 51.759984,44.762424 a 3.1333699,2.557853 0 0 1 -3.13337,2.557853 3.1333699,2.557853 0 0 1 -3.13337,-2.557853 3.1333699,2.557853 0 0 1 3.13337,-2.557853 3.1333699,2.557853 0 0 1 3.13337,2.557853 z" /><path
       style="opacity:1;fill:#ffffff;fill-opacity:1;stroke-width:7.35645"
       id="path69-68"
       d="m 48.014548,49.311749 a 4.604135,4.0742941 0 0 1 4.485177,-4.072934 4.604135,4.0742941 0 0 1 4.716946,3.862467" /><path
       style="opacity:1;fill:#ffffff;fill-opacity:1;stroke-width:2.065"
       d="m 57.20581,49.040933 -0.01291,0.503846 -39.661662,0.103354 0.07751,-0.374655 6.575826,-2.9068 5.684409,-1.175639 9.237162,0.180869 8.10028,-0.775147 5.981546,2.247924 z"
       id="path70-1" /></g><g
     id="g52"
     style="fill:#759238;fill-opacity:1"><path
       id="path47"
       style="opacity:1;stroke-width:3.23096"
       d="m 282.60622,101.39635 a 17.453751,18.229589 0 0 1 -17.45375,18.22959 17.453751,18.229589 0 0 1 -17.45375,-18.22959 17.453751,18.229589 0 0 1 17.45375,-18.229592 17.453751,18.229589 0 0 1 17.45375,18.229592 z" /><path
       id="path48"
       style="opacity:1;stroke-width:5.77938"
       d="m 293.78771,113.67828 a 13.48354,15.749065 0 0 1 -13.48354,15.74907 13.48354,15.749065 0 0 1 -13.48354,-15.74907 13.48354,15.749065 0 0 1 13.48354,-15.749062 13.48354,15.749065 0 0 1 13.48354,15.749062 z" /><path
       id="path49"
       style="opacity:1;stroke-width:4.15121"
       d="m 255.7853,116.67464 a 6.5773358,10.998767 0 0 1 -6.57734,10.99876 6.5773358,10.998767 0 0 1 -6.57733,-10.99876 6.5773358,10.998767 0 0 1 6.57733,-10.99877 6.5773358,10.998767 0 0 1 6.57734,10.99877 z" /><path
       id="path50"
       style="opacity:1;stroke-width:3.69717"
       d="m 275.51734,123.43467 a 11.948827,13.08159 0 0 1 -11.94883,13.08159 11.948827,13.08159 0 0 1 -11.94882,-13.08159 11.948827,13.08159 0 0 1 11.94882,-13.08159 11.948827,13.08159 0 0 1 11.94883,13.08159 z" /><path
       id="path51"
       style="opacity:1;stroke-width:5.35346"
       d="m 281.76535,127.23492 a 11.995028,8.3312922 0 0 1 -11.99503,8.33129 11.995028,8.3312922 0 0 1 -11.99502,-8.33129 11.995028,8.3312922 0 0 1 11.99502,-8.3313 11.995028,8.3312922 0 0 1 11.99503,8.3313 z" /><path
       id="path52"
       style="opacity:1;stroke-width:6.7578"
       d="m 261.47943,124.56743 a 7.3985739,6.6138768 0 0 1 -7.39857,6.61388 7.3985739,6.6138768 0 0 1 -7.39858,-6.61388 7.3985739,6.6138768 0 0 1 7.39858,-6.61388 7.3985739,6.6138768 0 0 1 7.39857,6.61388 z" /></g><path
     style="fill:#624f37;fill-opacity:1;stroke-width:2.065"
     d="m 264.70123,159.31769 h 4.89646 l -1.09622,-28.79411 7.67355,-10.3045 0.0731,-1.02314 0.87696,-0.87697 -0.36539,-0.21925 -8.18515,8.62362 -1.31545,-18.48962 h -1.1693 l -0.58465,18.48962 -5.1888,-4.53105 -0.95006,0.95006 6.06578,8.40437 z"
     id="path46" /><g
     id="g64"><path
       id="path53"
       style="opacity:1;fill:#678936;stroke-width:2.065"
       d="m 279.31753,108.81837 a 9.2448111,8.4774551 0 0 1 -9.24481,8.47745 9.2448111,8.4774551 0 0 1 -9.24481,-8.47745 9.2448111,8.4774551 0 0 1 9.24481,-8.47746 9.2448111,8.4774551 0 0 1 9.24481,8.47746 z" /><path
       id="path54"
       style="opacity:1;fill:#678936;stroke-width:2.065"
       d="m 277.05201,119.23248 a 12.241154,8.2947512 0 0 1 -12.24116,8.29475 12.241154,8.2947512 0 0 1 -12.24115,-8.29475 12.241154,8.2947512 0 0 1 12.24115,-8.29475 12.241154,8.2947512 0 0 1 12.24116,8.29475 z" /><path
       id="path55"
       style="opacity:1;fill:#678936;stroke-width:2.065"
       d="m 264.70123,110.17038 a 6.3580914,3.9829423 0 0 1 -6.35809,3.98294 6.3580914,3.9829423 0 0 1 -6.35809,-3.98294 6.3580914,3.9829423 0 0 1 6.35809,-3.98294 6.3580914,3.9829423 0 0 1 6.35809,3.98294 z" /><path
       id="path56"
       style="opacity:1;fill:#678936;stroke-width:2.065"
       d="m 283.84856,115.90727 a 6.8331213,6.7234988 0 0 1 -6.83312,6.7235 6.8331213,6.7234988 0 0 1 -6.83312,-6.7235 6.8331213,6.7234988 0 0 1 6.83312,-6.7235 6.8331213,6.7234988 0 0 1 6.83312,6.7235 z" /><path
       id="path57"
       style="opacity:1;fill:#678936;stroke-width:2.065"
       d="m 272.52095,99.135071 a 8.4043741,8.0755072 0 0 1 -8.40437,8.075509 8.4043741,8.0755072 0 0 1 -8.40438,-8.075509 8.4043741,8.0755072 0 0 1 8.40438,-8.075507 8.4043741,8.0755072 0 0 1 8.40437,8.075507 z" /><path
       id="path58"
       style="opacity:1;fill:#678936;stroke-width:2.065"
       d="m 262.50878,104.79888 a 5.225328,5.188787 0 0 1 -5.22533,5.18879 5.225328,5.188787 0 0 1 -5.22533,-5.18879 5.225328,5.188787 0 0 1 5.22533,-5.188785 5.225328,5.188787 0 0 1 5.22533,5.188785 z" /><path
       id="path59"
       style="opacity:1;fill:#678936;stroke-width:2.065"
       d="m 285.16403,109.73189 a 7.5639362,2.5943935 0 0 1 -7.56393,2.59439 7.5639362,2.5943935 0 0 1 -7.56394,-2.59439 7.5639362,2.5943935 0 0 1 7.56394,-2.5944 7.5639362,2.5943935 0 0 1 7.56393,2.5944 z" /><path
       id="path60"
       style="opacity:1;fill:#678936;stroke-width:2.065"
       d="m 286.47952,108.01447 a 6.2484694,7.5273952 0 0 1 -6.24847,7.5274 6.2484694,7.5273952 0 0 1 -6.24847,-7.5274 6.2484694,7.5273952 0 0 1 6.24847,-7.52739 6.2484694,7.5273952 0 0 1 6.24847,7.52739 z" /><path
       id="path61"
       style="opacity:1;fill:#678936;stroke-width:2.065"
       d="m 286.04105,116.56501 a 5.079165,6.7234988 0 0 1 -5.07917,6.7235 5.079165,6.7234988 0 0 1 -5.07916,-6.7235 5.079165,6.7234988 0 0 1 5.07916,-6.7235 5.079165,6.7234988 0 0 1 5.07917,6.7235 z" /><path
       id="path62"
       style="opacity:1;fill:#678936;stroke-width:2.065"
       d="m 266.16286,120.3287 a 9.610219,7.2716103 0 0 1 -9.61022,7.27161 9.610219,7.2716103 0 0 1 -9.61022,-7.27161 9.610219,7.2716103 0 0 1 9.61022,-7.27161 9.610219,7.2716103 0 0 1 9.61022,7.27161 z" /><path
       id="path63"
       style="opacity:1;fill:#678936;stroke-width:2.065"
       d="m 259.6586,114.33603 a 5.079165,4.1291056 0 0 1 -5.07916,4.1291 5.079165,4.1291056 0 0 1 -5.07917,-4.1291 5.079165,4.1291056 0 0 1 5.07917,-4.12911 5.079165,4.1291056 0 0 1 5.07916,4.12911 z" /><path
       id="path64"
       style="opacity:1;fill:#678936;stroke-width:2.065"
       d="m 282.09461,122.48461 a 5.7734394,2.6309345 0 0 1 -5.77344,2.63094 5.7734394,2.6309345 0 0 1 -5.77344,-2.63094 5.7734394,2.6309345 0 0 1 5.77344,-2.63093 5.7734394,2.6309345 0 0 1 5.77344,2.63093 z" /></g><g
     id="g70"
     transform="translate(0.14616302,-0.14616302)"><path
       style="opacity:1;fill:#ffffff;fill-opacity:1;stroke-width:3.01581"
       id="path65"
       d="M 30.702029,48.840969 A 8.9524841,8.6601591 0 0 1 31.23242,36.927778 8.9524841,8.6601591 0 0 1 43.558655,36.819913 8.9524841,8.6601591 0 0 1 44.311757,48.721872" /><path
       id="path66"
       style="opacity:1;fill:#ffffff;stroke-width:2.79096"
       d="m 29.451849,45.164371 a 3.2886679,2.8501794 0 0 1 -3.288668,2.85018 3.2886679,2.8501794 0 0 1 -3.288668,-2.85018 3.2886679,2.8501794 0 0 1 3.288668,-2.850179 3.2886679,2.8501794 0 0 1 3.288668,2.850179 z" /><path
       style="opacity:1;fill:#ffffff;fill-opacity:1;stroke-width:6.29255"
       id="path67"
       d="m 17.591232,49.346584 a 4.1108351,4.7502985 0 0 1 4.103125,-3.999229 4.1108351,4.7502985 0 0 1 4.028171,4.099716" /><path
       id="path68"
       style="opacity:1;fill:#ffffff;stroke-width:3.43445"
       d="m 51.759984,44.762424 a 3.1333699,2.557853 0 0 1 -3.13337,2.557853 3.1333699,2.557853 0 0 1 -3.13337,-2.557853 3.1333699,2.557853 0 0 1 3.13337,-2.557853 3.1333699,2.557853 0 0 1 3.13337,2.557853 z" /><path
       style="opacity:1;fill:#ffffff;fill-opacity:1;stroke-width:7.35645"
       id="path69"
       d="m 48.014548,49.311749 a 4.604135,4.0742941 0 0 1 4.485177,-4.072934 4.604135,4.0742941 0 0 1 4.716946,3.862467" /><path
       style="opacity:1;fill:#ffffff;fill-opacity:1;stroke-width:2.065"
       d="m 57.20581,49.040933 -0.01291,0.503846 -39.661662,0.103354 0.07751,-0.374655 6.575826,-2.9068 5.684409,-1.175639 9.237162,0.180869 8.10028,-0.775147 5.981546,2.247924 z"
       id="path70" /></g><path
     id="rect24"
     style="fill:#6490b3;stroke-width:0.194554"
     d="m 219.53093,102.39737 h 4.53105 v 4.38489 h -4.53105 z" /><path
     id="rect24-8"
     style="fill:#6490b3;stroke-width:0.194554"
     d="m 226.2868,102.39737 h 4.53106 v 4.38489 h -4.53106 z" /><path
     id="rect24-8-1"
     style="fill:#6490b3;stroke-width:0.194554"
     d="m 233.08122,102.39737 h 4.53106 v 4.38489 h -4.53106 z" /><path
     id="rect24-2"
     style="fill:#6490b3;stroke-width:0.194554"
     d="m 219.53093,109.45792 h 4.53105 v 4.38489 h -4.53105 z" /><path
     id="rect24-8-7"
     style="fill:#6490b3;stroke-width:0.194554"
     d="m 226.2868,109.45792 h 4.53106 v 4.38489 h -4.53106 z" /><path
     id="rect24-8-1-6"
     style="fill:#6490b3;stroke-width:0.194554"
     d="m 233.08122,109.45792 h 4.53106 v 4.38489 h -4.53106 z" /><path
     id="rect24-22"
     style="fill:#6490b3;stroke-width:0.194554"
     d="m 219.53093,116.32159 h 4.53105 v 4.38489 h -4.53105 z" /><path
     id="rect24-8-16"
     style="fill:#6490b3;stroke-width:0.194554"
     d="m 226.2868,116.32159 h 4.53106 v 4.38489 h -4.53106 z" /><path
     id="rect24-8-1-8"
     style="fill:#6490b3;stroke-width:0.194554"
     d="m 233.08122,116.32159 h 4.53106 v 4.38489 h -4.53106 z" /><path
     id="rect24-89"
     style="fill:#6490b3;stroke-width:0.194554"
     d="m 219.53093,123.12943 h 4.53105 v 4.38489 h -4.53105 z" /><path
     id="rect24-8-2"
     style="fill:#6490b3;stroke-width:0.194554"
     d="m 226.2868,123.12943 h 4.53106 v 4.38489 h -4.53106 z" /><path
     id="rect24-8-1-7"
     style="fill:#6490b3;stroke-width:0.194554"
     d="m 233.08122,123.12943 h 4.53106 v 4.38489 h -4.53106 z" /><path
     id="rect24-1"
     style="fill:#6490b3;stroke-width:0.194554"
     d="m 219.53093,130.3414 h 4.53105 v 4.38489 h -4.53105 z" /><path
     id="rect24-8-23"
     style="fill:#6490b3;stroke-width:0.194554"
     d="m 226.2868,130.3414 h 4.53106 v 4.38489 h -4.53106 z" /><path
     id="rect24-8-1-3"
     style="fill:#6490b3;stroke-width:0.194554"
     d="m 233.08122,130.3414 h 4.53106 v 4.38489 h -4.53106 z" /><path
     id="rect25"
     style="fill:#6490b3;stroke-width:0.264583"
     d="m 61.607714,86.893921 h 15.420199 c 0.445359,0 0.803897,0.358538 0.803897,0.803897 v 1.534711 c 0,0.445359 -0.358538,0.803897 -0.803897,0.803897 H 61.607714 c -0.445358,0 -0.803896,-0.358538 -0.803896,-0.803897 v -1.534711 c 0,-0.445359 0.358538,-0.803897 0.803896,-0.803897 z" /><path
     id="rect25-8"
     style="fill:#6490b3;stroke-width:0.264583"
     d="m 61.683108,92.776016 h 15.420199 c 0.445359,0 0.803897,0.358538 0.803897,0.803897 v 1.534712 c 0,0.445358 -0.358538,0.803896 -0.803897,0.803896 H 61.683108 c -0.445359,0 -0.803897,-0.358538 -0.803897,-0.803896 v -1.534712 c 0,-0.445359 0.358538,-0.803897 0.803897,-0.803897 z" /><path
     id="rect25-7"
     style="fill:#6490b3;stroke-width:0.264583"
     d="m 61.960536,98.889175 h 15.420199 c 0.445358,0 0.803896,0.358538 0.803896,0.803897 v 1.534708 c 0,0.44536 -0.358538,0.8039 -0.803896,0.8039 H 61.960536 c -0.445359,0 -0.803897,-0.35854 -0.803897,-0.8039 v -1.534708 c 0,-0.445359 0.358538,-0.803897 0.803897,-0.803897 z" /><path
     id="rect25-86"
     style="fill:#6490b3;stroke-width:0.264583"
     d="m 61.693255,105.36774 h 15.420199 c 0.445359,0 0.803897,0.35853 0.803897,0.80389 v 1.53472 c 0,0.44535 -0.358538,0.80389 -0.803897,0.80389 H 61.693255 c -0.445359,0 -0.803896,-0.35854 -0.803896,-0.80389 v -1.53472 c 0,-0.44536 0.358537,-0.80389 0.803896,-0.80389 z" /><path
     id="rect25-6"
     style="fill:#6490b3;stroke-width:0.264583"
     d="m 61.471633,111.57903 h 15.420199 c 0.445358,0 0.803896,0.35854 0.803896,0.8039 v 1.53471 c 0,0.44536 -0.358538,0.8039 -0.803896,0.8039 H 61.471633 c -0.445359,0 -0.803897,-0.35854 -0.803897,-0.8039 v -1.53471 c 0,-0.44536 0.358538,-0.8039 0.803897,-0.8039 z" /><path
     id="rect25-65"
     style="fill:#6490b3;stroke-width:0.264583"
     d="m 61.471633,117.6191 h 15.420199 c 0.445358,0 0.803896,0.35854 0.803896,0.8039 v 1.53471 c 0,0.44536 -0.358538,0.8039 -0.803896,0.8039 H 61.471633 c -0.445359,0 -0.803897,-0.35854 -0.803897,-0.8039 V 118.423 c 0,-0.44536 0.358538,-0.8039 0.803897,-0.8039 z" /><path
     id="rect25-61"
     style="fill:#6490b3;stroke-width:0.264583"
     d="m 61.471633,123.82771 h 15.420199 c 0.445358,0 0.803896,0.35854 0.803896,0.8039 v 1.53471 c 0,0.44536 -0.358538,0.8039 -0.803896,0.8039 H 61.471633 c -0.445359,0 -0.803897,-0.35854 -0.803897,-0.8039 v -1.53471 c 0,-0.44536 0.358538,-0.8039 0.803897,-0.8039 z" /><path
     id="rect25-4"
     style="fill:#6490b3;stroke-width:0.264583"
     d="m 61.471633,129.99159 h 15.420199 c 0.445358,0 0.803896,0.35854 0.803896,0.8039 v 1.53471 c 0,0.44536 -0.358538,0.8039 -0.803896,0.8039 H 61.471633 c -0.445359,0 -0.803897,-0.35854 -0.803897,-0.8039 v -1.53471 c 0,-0.44536 0.358538,-0.8039 0.803897,-0.8039 z" /><path
     id="rect26"
     style="fill:#638fb2;stroke-width:0.264583"
     d="m 198.02409,87.291832 h 1.24023 c 0.80161,0 1.44694,0.645335 1.44694,1.44694 V 136.6945 c 0,0.80161 -0.64533,1.44694 -1.44694,1.44694 h -1.24023 c -0.80161,0 -1.44694,-0.64533 -1.44694,-1.44694 V 88.738772 c 0,-0.801605 0.64533,-1.44694 1.44694,-1.44694 z" /><path
     id="rect26-6"
     style="fill:#638fb2;stroke-width:0.264583"
     d="m 203.48939,87.291832 h 1.24023 c 0.80161,0 1.44694,0.645335 1.44694,1.44694 V 136.6945 c 0,0.80161 -0.64533,1.44694 -1.44694,1.44694 h -1.24023 c -0.8016,0 -1.44694,-0.64533 -1.44694,-1.44694 V 88.738772 c 0,-0.801605 0.64534,-1.44694 1.44694,-1.44694 z" /><path
     id="rect26-63"
     style="fill:#638fb2;stroke-width:0.264583"
     d="m 209.23582,87.291832 h 1.24023 c 0.80161,0 1.44694,0.645335 1.44694,1.44694 V 136.6945 c 0,0.80161 -0.64533,1.44694 -1.44694,1.44694 h -1.24023 c -0.80161,0 -1.44694,-0.64533 -1.44694,-1.44694 V 88.738772 c 0,-0.801605 0.64533,-1.44694 1.44694,-1.44694 z" /></svg>
